<?xml version="1.0" encoding="UTF-8" standalone="no"?>
<!-- Created with Inkscape (http://www.inkscape.org/) -->

<svg
   width="180"
   height="180"
   viewBox="0 0 180 180"
   version="1.1"
   id="svg5"
   sodipodi:docname="icon.ico.svg"
   inkscape:version="1.1.2 (b8e25be833, 2022-02-05)"
   xmlns:inkscape="http://www.inkscape.org/namespaces/inkscape"
   xmlns:sodipodi="http://sodipodi.sourceforge.net/DTD/sodipodi-0.dtd"
   xmlns="http://www.w3.org/2000/svg"
   xmlns:svg="http://www.w3.org/2000/svg">
  <sodipodi:namedview
     id="namedview7"
     pagecolor="#ffffff"
     bordercolor="#999999"
     borderopacity="1"
     inkscape:pageshadow="0"
     inkscape:pageopacity="0"
     inkscape:pagecheckerboard="0"
     inkscape:document-units="px"
     showgrid="false"
     inkscape:zoom="12.111111"
     inkscape:cx="85.12844"
     inkscape:cy="59.779817"
     inkscape:window-width="1366"
     inkscape:window-height="705"
     inkscape:window-x="-8"
     inkscape:window-y="-8"
     inkscape:window-maximized="1"
     inkscape:current-layer="g41133" />
  <defs
     id="defs2">
    <inkscape:path-effect
       effect="bspline"
       id="path-effect43647"
       is_visible="true"
       lpeversion="1"
       weight="33.333333"
       steps="2"
       helper_size="0"
       apply_no_weight="true"
       apply_with_weight="true"
       only_selected="false" />
    <inkscape:path-effect
       effect="spiro"
       id="path-effect20235"
       is_visible="true"
       lpeversion="1" />
    <inkscape:path-effect
       effect="spiro"
       id="path-effect12891"
       is_visible="true"
       lpeversion="1" />
    <inkscape:path-effect
       effect="spiro"
       id="path-effect12774"
       is_visible="true"
       lpeversion="1" />
    <inkscape:path-effect
       effect="bspline"
       id="path-effect10798"
       is_visible="true"
       lpeversion="1"
       weight="33.333333"
       steps="2"
       helper_size="0"
       apply_no_weight="true"
       apply_with_weight="true"
       only_selected="false" />
    <inkscape:path-effect
       effect="bspline"
       id="path-effect10533"
       is_visible="true"
       lpeversion="1"
       weight="33.333333"
       steps="2"
       helper_size="0"
       apply_no_weight="true"
       apply_with_weight="true"
       only_selected="false" />
    <inkscape:path-effect
       effect="spiro"
       id="path-effect4446"
       is_visible="true"
       lpeversion="1" />
    <inkscape:path-effect
       effect="bspline"
       id="path-effect875"
       is_visible="true"
       lpeversion="1"
       weight="33.333333"
       steps="2"
       helper_size="0"
       apply_no_weight="true"
       apply_with_weight="true"
       only_selected="false" />
    <inkscape:path-effect
       effect="bspline"
       id="path-effect871"
       is_visible="true"
       lpeversion="1"
       weight="33.333333"
       steps="2"
       helper_size="0"
       apply_no_weight="true"
       apply_with_weight="true"
       only_selected="false" />
    <clipPath
       clipPathUnits="userSpaceOnUse"
       id="clipPath10494">
      <rect
         style="fill:#2ca02c;fill-opacity:1;stroke:#000000;stroke-width:4.7;stroke-miterlimit:4;stroke-dasharray:none"
         id="rect10496"
         width="102.75065"
         height="46.420605"
         x="50.211071"
         y="86.409744"
         ry="2.2990799" />
    </clipPath>
    <clipPath
       clipPathUnits="userSpaceOnUse"
       id="clipPath10494-5">
      <rect
         style="fill:#2ca02c;fill-opacity:1;stroke:#000000;stroke-width:4.7;stroke-miterlimit:4;stroke-dasharray:none"
         id="rect10496-6"
         width="102.75065"
         height="46.420605"
         x="50.211071"
         y="86.409744"
         ry="2.2990799" />
    </clipPath>
    <inkscape:path-effect
       effect="bspline"
       id="path-effect10533-2"
       is_visible="true"
       lpeversion="1"
       weight="33.333333"
       steps="2"
       helper_size="0"
       apply_no_weight="true"
       apply_with_weight="true"
       only_selected="false" />
    <inkscape:path-effect
       effect="bspline"
       id="path-effect10798-1"
       is_visible="true"
       lpeversion="1"
       weight="33.333333"
       steps="2"
       helper_size="0"
       apply_no_weight="true"
       apply_with_weight="true"
       only_selected="false" />
    <inkscape:path-effect
       effect="bspline"
       id="path-effect11287"
       is_visible="true"
       lpeversion="1"
       weight="33.333333"
       steps="2"
       helper_size="0"
       apply_no_weight="true"
       apply_with_weight="true"
       only_selected="false" />
    <clipPath
       clipPathUnits="userSpaceOnUse"
       id="clipPath41318">
      <rect
         style="opacity:0.160966;fill:#ffffff;fill-opacity:1;stroke:#dd55ff;stroke-width:0.491994;stroke-miterlimit:4;stroke-dasharray:none;stroke-opacity:1"
         id="rect41320"
         width="784.54181"
         height="180.11726"
         x="-84.223358"
         y="-4.0723763"
         ry="1.4495387" />
    </clipPath>
    <clipPath
       clipPathUnits="userSpaceOnUse"
       id="clipPath43729">
      <path
         style="fill:none;stroke:#000000;stroke-width:2.32198px;stroke-linecap:butt;stroke-linejoin:miter;stroke-opacity:1"
         d="m 120.44499,137.46696 c -1.9566,4.52536 -1.86452,9.00526 -0.29789,12.44268 1.56663,3.43741 4.60517,5.83255 7.75881,7.02914 3.15363,1.19658 6.42236,1.19658 10.75003,0.97471 4.32767,-0.22187 9.71418,-0.66542 12.82059,-2.99315 3.10641,-2.32774 3.93511,-6.54142 3.93563,-10.22247 5.2e-4,-3.68105 -0.82818,-6.83021 -5.1319,-10.22414 -4.30372,-3.39393 -12.08422,-7.031 -17.97877,-6.56582 -5.89455,0.46518 -9.8999,5.0337 -11.8565,9.55905 z"
         id="path43731"
         inkscape:path-effect="#path-effect43647"
         inkscape:original-d="m 118.39626,137.5101 c 0.0944,4.48217 0.18653,8.96207 0.27624,13.43969 3.04103,2.39752 6.07957,4.79266 9.11581,7.18557 3.27123,0.002 6.53996,0.002 9.8064,0 5.3891,-0.44128 10.77561,-0.88482 16.15985,-1.33066 0.8311,-4.21157 1.65979,-8.42525 2.48613,-12.64129 -0.82637,-3.14702 -1.65505,-6.29619 -2.48613,-9.4477 -7.77847,-3.63494 -15.55897,-7.27201 -23.342,-10.91144 -4.00315,4.57098 -8.0085,9.1395 -12.0163,13.70583 z" />
    </clipPath>
  </defs>
  <g
     inkscape:label="Camada 1"
     inkscape:groupmode="layer"
     id="layer1">
    <g
       id="g15613"
       transform="matrix(1.1990579,0,0,1.2445824,-39.135235,-10.812303)">
      <g
         id="g41133"
         clip-path="url(#clipPath41318)"
         transform="matrix(0.35254089,0,0,0.35254089,67.004961,-4.1378584)">
        <g
           id="g37799"
           transform="translate(315.52652,8.2563867)">
          <path
             style="opacity:0.678068;fill:#ffffff;stroke-width:0.401072;stroke-miterlimit:4;stroke-dasharray:none"
             d="m 369.3366,179.77326 c -0.2818,0.0523 -1.07221,0.14914 -1.75648,0.21513 -1.59887,0.1542 -2.18262,0.49375 -3.38809,1.97079 -1.25406,1.53655 -2.24375,2.10993 -3.80082,2.20203 -2.55593,0.15112 -4.82234,-1.83259 -4.9174,-4.30403 -0.0449,-1.16939 1.65816,-7.41072 2.25106,-8.24927 0.72702,-1.02822 2.72373,-2.10144 4.06851,-2.18686 1.08766,-0.069 7.78066,1.75689 8.84201,2.41222 1.99892,1.23424 2.65438,4.11954 1.36937,6.02801 -0.53908,0.80062 -1.88772,1.76707 -2.66815,1.912 z m 1.39008,-2.12107 c 0.85599,-1.0075 1.01331,-2.60926 0.36286,-3.69467 -0.64255,-1.07222 -1.31243,-1.41023 -4.76072,-2.40232 -4.1891,-1.20521 -4.59141,-1.24369 -5.99544,-0.5735 -1.55107,0.74039 -1.88474,1.32884 -2.9147,5.14013 -1.10038,4.07188 -0.98449,5.10898 0.69884,6.25408 1.83422,1.24773 3.53224,0.8607 5.17959,-1.1806 1.24657,-1.54468 2.45375,-2.18747 4.4476,-2.36826 1.59541,-0.14464 2.36392,-0.44744 2.98197,-1.17486 z m -19.96587,0.40721 c -2.0755,-0.0842 -4.15517,-1.90188 -4.36912,-3.81869 -0.29182,-2.61435 2.30457,-3.69052 5.02904,-2.08447 1.85963,1.09625 2.75056,3.22251 1.9456,4.64326 -0.50413,0.88979 -1.37296,1.30991 -2.60552,1.2599 z m 1.68951,-2.101 c 0.49304,-2.06189 -3.12075,-4.42222 -4.62346,-3.01979 -0.76525,0.71419 -0.17221,2.41197 1.16411,3.3327 1.45429,1.002 3.1823,0.8457 3.45935,-0.31291 z m 16.70977,-7.74495 c -1.28158,0.30264 -2.47313,-0.32777 -3.32513,-1.75921 -0.70106,-1.178 -0.85246,-2.13107 -0.55249,-3.4796 0.63385,-2.84952 3.70999,-3.20203 5.29857,-0.60719 1.41346,2.30884 0.67396,5.35128 -1.42095,5.846 z m 0.5454,-1.74653 c 1.23229,-1.72005 -0.3707,-5.20266 -2.16756,-4.7092 -1.04965,0.28828 -1.54111,2.21106 -0.95381,3.73165 0.33871,0.87696 1.33913,1.70004 2.02169,1.66332 0.68458,-0.0368 0.59456,0.0193 1.09969,-0.68573 z m -15.05575,4.76002 c -0.82141,0.25988 -2.54232,-0.24079 -3.3039,-0.96121 -2.11688,-2.00255 -2.31428,-5.32592 -0.38024,-6.40169 1.73635,-0.96582 3.72322,-0.18042 5.008,1.9796 1.39602,2.34694 0.81575,4.70638 -1.32386,5.3833 z m 0.65141,-1.88117 c 0.20607,-0.36368 0.3224,-0.98006 0.26585,-1.40869 -0.20281,-1.53738 -1.70485,-3.25849 -2.93435,-3.36229 -0.61442,-0.0519 -1.50308,0.41781 -1.70697,0.90217 -0.76198,1.81041 1.14355,4.75771 3.04466,4.70917 0.80805,-0.0206 0.89874,-0.0779 1.33078,-0.8404 z m 5.9863,-2.24422 c -2.47607,0.30853 -5.12323,-2.56871 -4.77476,-5.18974 0.45209,-3.40033 4.33116,-3.62859 6.32369,-0.3721 1.1877,1.94123 1.02839,3.97731 -0.39384,5.03204 -0.34396,0.25511 -0.86375,0.49352 -1.15509,0.5298 z m 0.89367,-1.89648 c 0.37702,-0.56674 0.34838,-1.72343 -0.0667,-2.69566 -0.63771,-1.4935 -2.54154,-2.55535 -3.56294,-1.9872 -2.00112,1.11308 -0.32941,5.36225 2.132,5.41914 0.86167,0.0199 1.05926,-0.0772 1.49767,-0.73629 z m 6.70428,-8.9694 c -1.97655,0.49761 -4.11921,-0.36137 -5.15571,-2.06692 -0.31124,-0.51122 -0.61069,-1.28507 -0.66636,-1.71914 -0.0557,-0.43408 0.26991,-2.29981 0.7235,-4.14606 1.00958,-4.10925 1.49658,-5.00315 3.26022,-5.98414 1.77065,-0.98489 2.75747,-0.94033 7.03671,0.31775 4.13084,1.21444 4.78435,1.59132 5.66021,3.26429 0.77754,1.48516 0.71511,2.68576 -0.21288,4.09363 -0.89798,1.36232 -2.08396,2.00192 -3.97917,2.14594 -1.78385,0.13556 -2.70285,0.61073 -3.73821,1.93286 -1.004,1.28207 -1.81648,1.88188 -2.92831,2.16179 z m 2.11506,-2.97301 c 1.06847,-1.35744 2.26099,-1.98747 4.14048,-2.18748 2.70161,-0.28749 4.03413,-1.54204 3.92976,-3.69978 -0.0342,-0.70675 -0.83389,-1.9827 -1.4966,-2.38783 -0.74657,-0.45641 -7.3597,-2.3009 -8.12666,-2.26663 -0.9522,0.0426 -2.00607,0.50198 -2.71314,1.18277 -0.53356,0.51374 -0.80495,1.18486 -1.58484,3.91924 -0.51757,1.81465 -0.94844,3.59968 -0.95751,3.96675 -0.0507,2.05388 1.75469,3.61177 3.96848,3.42442 1.0524,-0.0891 1.75304,-0.57049 2.84002,-1.95146 z m -11.60457,-3.09887 c -1.60871,0.51105 -3.83752,-0.52689 -4.88507,-2.27493 -1.00603,-1.67878 -0.76947,-3.12259 0.63985,-3.90504 0.92315,-0.51254 1.89474,-0.54184 3.01542,-0.091 3.39978,1.36785 4.17767,5.33445 1.2298,6.27092 z m 0.53186,-1.87878 c 0.66344,-1.82531 -2.40085,-4.29112 -4.18136,-3.36471 -0.67782,0.35263 -0.83214,0.81207 -0.57951,1.72493 0.28976,1.04701 1.46124,2.1088 2.62042,2.37504 1.38224,0.31747 1.81138,0.17005 2.14045,-0.73526 z m 16.50208,-7.79031 c -2.20912,0.28128 -4.22895,-2.72675 -3.58119,-5.33325 0.54791,-2.20472 2.45758,-2.99483 4.2512,-1.75891 0.86617,0.59686 1.35918,1.36518 1.65648,2.58151 0.52688,2.15567 -0.57258,4.28733 -2.32649,4.51065 z m 0.97728,-2.03301 c 0.4927,-0.84143 0.31309,-2.61232 -0.35315,-3.48195 -0.76318,-0.99618 -1.4518,-1.27543 -2.16576,-0.87831 -1.25362,0.69731 -1.35597,2.7791 -0.2126,4.32408 0.92665,1.25211 2.0111,1.26647 2.73151,0.0361 z m -15.94344,5.02155 c -2.22602,-0.14907 -4.18359,-2.19805 -4.3081,-4.50929 -0.17373,-3.22496 2.98861,-4.42785 5.5125,-2.09683 2.6884,2.48295 1.8988,6.81393 -1.2044,6.60612 z m 1.5845,-2.31961 c 0.4735,-1.70251 -0.81303,-3.83139 -2.59307,-4.29092 -2.61415,-0.67484 -2.95211,3.23505 -0.42989,4.97324 1.35655,0.93485 2.65469,0.64183 3.02298,-0.68233 z m 5.22143,-1.9049 c -1.71974,-0.11516 -3.35926,-1.43552 -3.91943,-3.15644 -0.91922,-2.82399 0.5709,-5.08021 3.04155,-4.60529 3.5063,0.67398 5.15768,5.88009 2.35895,7.43682 -0.42498,0.23639 -0.98113,0.3584 -1.48107,0.32491 z m 1.63781,-2.33197 c 0.2302,-0.91314 0.0937,-1.65098 -0.48072,-2.59928 -1.0332,-1.70554 -3.12499,-2.348 -3.84426,-1.18069 -0.70471,1.14367 -0.35627,2.88739 0.80803,4.04353 1.37453,1.36494 3.13977,1.23266 3.51695,-0.26356 z"
             id="path36394" />
          <path
             style="opacity:0.678068;fill:#ffffff;stroke-width:0.401072;stroke-miterlimit:4;stroke-dasharray:none"
             d="m 343.23749,152.75236 c -0.2818,0.0523 -1.07221,0.14914 -1.75648,0.21513 -1.59887,0.1542 -2.18262,0.49375 -3.38809,1.97079 -1.25406,1.53655 -2.24375,2.10993 -3.80082,2.20203 -2.55593,0.15112 -4.82234,-1.83259 -4.9174,-4.30403 -0.0449,-1.16939 1.65816,-7.41072 2.25106,-8.24927 0.72702,-1.02822 2.72373,-2.10144 4.06851,-2.18686 1.08766,-0.069 7.78066,1.75689 8.84201,2.41222 1.99892,1.23424 2.65438,4.11954 1.36937,6.02801 -0.53908,0.80062 -1.88772,1.76707 -2.66815,1.912 z m 1.39008,-2.12107 c 0.85599,-1.0075 1.01331,-2.60926 0.36286,-3.69467 -0.64255,-1.07222 -1.31243,-1.41023 -4.76072,-2.40232 -4.1891,-1.20521 -4.59141,-1.24369 -5.99544,-0.5735 -1.55107,0.74039 -1.88474,1.32884 -2.9147,5.14013 -1.10038,4.07188 -0.98449,5.10898 0.69884,6.25408 1.83422,1.24773 3.53224,0.8607 5.17959,-1.1806 1.24657,-1.54468 2.45375,-2.18747 4.4476,-2.36826 1.59541,-0.14464 2.36392,-0.44744 2.98197,-1.17486 z m -19.96587,0.40721 c -2.0755,-0.0842 -4.15517,-1.90188 -4.36912,-3.81869 -0.29182,-2.61435 2.30457,-3.69052 5.02904,-2.08447 1.85963,1.09625 2.75056,3.22251 1.9456,4.64326 -0.50413,0.88979 -1.37296,1.30991 -2.60552,1.2599 z m 1.68951,-2.101 c 0.49304,-2.06189 -3.12075,-4.42222 -4.62346,-3.01979 -0.76525,0.71419 -0.17221,2.41197 1.16411,3.3327 1.45429,1.002 3.1823,0.8457 3.45935,-0.31291 z m 16.70977,-7.74495 c -1.28158,0.30264 -2.47313,-0.32777 -3.32513,-1.75921 -0.70106,-1.178 -0.85246,-2.13107 -0.55249,-3.4796 0.63385,-2.84952 3.70999,-3.20203 5.29857,-0.60719 1.41346,2.30884 0.67396,5.35128 -1.42095,5.846 z m 0.5454,-1.74653 c 1.23229,-1.72005 -0.3707,-5.20266 -2.16756,-4.7092 -1.04965,0.28828 -1.54111,2.21106 -0.95381,3.73165 0.33871,0.87696 1.33913,1.70004 2.02169,1.66332 0.68458,-0.0368 0.59456,0.0193 1.09969,-0.68573 z m -15.05575,4.76002 c -0.82141,0.25988 -2.54232,-0.24079 -3.3039,-0.96121 -2.11688,-2.00255 -2.31428,-5.32592 -0.38024,-6.40169 1.73635,-0.96582 3.72322,-0.18042 5.008,1.9796 1.39602,2.34694 0.81575,4.70638 -1.32386,5.3833 z m 0.65141,-1.88117 c 0.20607,-0.36368 0.3224,-0.98006 0.26585,-1.40869 -0.20281,-1.53738 -1.70485,-3.25849 -2.93435,-3.36229 -0.61442,-0.0519 -1.50308,0.41781 -1.70697,0.90217 -0.76198,1.81041 1.14355,4.75771 3.04466,4.70917 0.80805,-0.0206 0.89874,-0.0779 1.33078,-0.8404 z m 5.9863,-2.24422 c -2.47607,0.30853 -5.12323,-2.56871 -4.77476,-5.18974 0.45209,-3.40033 4.33116,-3.62859 6.32369,-0.3721 1.1877,1.94123 1.02839,3.97731 -0.39384,5.03204 -0.34396,0.25511 -0.86375,0.49352 -1.15509,0.5298 z m 0.89367,-1.89648 c 0.37702,-0.56674 0.34838,-1.72343 -0.0667,-2.69566 -0.63771,-1.4935 -2.54154,-2.55535 -3.56294,-1.9872 -2.00112,1.11308 -0.32941,5.36225 2.132,5.41914 0.86167,0.0199 1.05926,-0.0772 1.49767,-0.73629 z m 6.70428,-8.96941 c -1.97655,0.49761 -4.11921,-0.36137 -5.15571,-2.06692 -0.31124,-0.51122 -0.61069,-1.28507 -0.66636,-1.71914 -0.0557,-0.43408 0.26991,-2.29981 0.7235,-4.14606 1.00958,-4.10925 1.49658,-5.00315 3.26022,-5.98414 1.77065,-0.98489 2.75747,-0.94033 7.03671,0.31775 4.13084,1.21444 4.78435,1.59132 5.66021,3.26429 0.77754,1.48516 0.71511,2.68576 -0.21288,4.09363 -0.89798,1.36232 -2.08396,2.00192 -3.97917,2.14594 -1.78385,0.13556 -2.70285,0.61073 -3.73821,1.93286 -1.004,1.28207 -1.81648,1.88188 -2.92831,2.16179 z m 2.11506,-2.97301 c 1.06847,-1.35744 2.26099,-1.98747 4.14048,-2.18748 2.70161,-0.28749 4.03413,-1.54204 3.92976,-3.69978 -0.0342,-0.70675 -0.83389,-1.9827 -1.4966,-2.38783 -0.74657,-0.45641 -7.3597,-2.3009 -8.12666,-2.26663 -0.9522,0.0426 -2.00607,0.50198 -2.71314,1.18277 -0.53356,0.51374 -0.80495,1.18486 -1.58484,3.91924 -0.51757,1.81465 -0.94844,3.59968 -0.95751,3.96675 -0.0507,2.05388 1.75469,3.61177 3.96848,3.42442 1.0524,-0.0891 1.75304,-0.57049 2.84002,-1.95146 z m -11.60457,-3.09887 c -1.60871,0.51105 -3.83752,-0.52689 -4.88507,-2.27493 -1.00603,-1.67878 -0.76947,-3.12259 0.63985,-3.90504 0.92315,-0.51254 1.89474,-0.54184 3.01542,-0.091 3.39978,1.36785 4.17767,5.33445 1.2298,6.27092 z m 0.53186,-1.87878 c 0.66344,-1.82531 -2.40085,-4.29112 -4.18136,-3.36471 -0.67782,0.35263 -0.83214,0.81207 -0.57951,1.72493 0.28976,1.04701 1.46124,2.1088 2.62042,2.37504 1.38224,0.31747 1.81138,0.17005 2.14045,-0.73526 z m 16.50208,-7.79031 c -2.20912,0.28128 -4.22895,-2.72675 -3.58119,-5.33325 0.54791,-2.20472 2.45758,-2.99483 4.2512,-1.75891 0.86617,0.59686 1.35918,1.36518 1.65648,2.58151 0.52688,2.15567 -0.57258,4.28733 -2.32649,4.51065 z m 0.97728,-2.03301 c 0.4927,-0.84143 0.31309,-2.61232 -0.35315,-3.48195 -0.76318,-0.99618 -1.4518,-1.27543 -2.16576,-0.87831 -1.25362,0.69731 -1.35597,2.7791 -0.2126,4.32408 0.92665,1.25211 2.0111,1.26647 2.73151,0.0361 z m -15.94344,5.02155 c -2.22602,-0.14907 -4.18359,-2.19805 -4.3081,-4.50929 -0.17373,-3.22496 2.98861,-4.42785 5.5125,-2.09683 2.6884,2.48295 1.8988,6.81393 -1.2044,6.60612 z m 1.5845,-2.31961 c 0.4735,-1.70251 -0.81303,-3.83139 -2.59307,-4.29092 -2.61415,-0.67484 -2.95211,3.23505 -0.42989,4.97324 1.35655,0.93485 2.65469,0.64183 3.02298,-0.68233 z m 5.22143,-1.9049 c -1.71974,-0.11516 -3.35926,-1.43552 -3.91943,-3.15644 -0.91922,-2.82399 0.5709,-5.08021 3.04155,-4.60529 3.5063,0.67398 5.15768,5.88009 2.35895,7.43682 -0.42498,0.23639 -0.98113,0.3584 -1.48107,0.32491 z m 1.63781,-2.33197 c 0.2302,-0.91314 0.0937,-1.65098 -0.48072,-2.59928 -1.0332,-1.70554 -3.12499,-2.348 -3.84426,-1.18069 -0.70471,1.14367 -0.35627,2.88739 0.80803,4.04353 1.37453,1.36494 3.13977,1.23266 3.51695,-0.26356 z"
             id="path37698" />
          <path
             style="opacity:0.678068;fill:#ffffff;stroke-width:0.401072;stroke-miterlimit:4;stroke-dasharray:none"
             d="m 313.63253,123.10442 c -0.2818,0.0523 -1.07221,0.14914 -1.75648,0.21513 -1.59887,0.1542 -2.18262,0.49375 -3.38809,1.97079 -1.25406,1.53655 -2.24375,2.10993 -3.80082,2.20203 -2.55593,0.15112 -4.82234,-1.83259 -4.9174,-4.30403 -0.0449,-1.16939 1.65816,-7.41072 2.25106,-8.24927 0.72702,-1.02822 2.72373,-2.10144 4.06851,-2.18686 1.08766,-0.069 7.78066,1.75689 8.84201,2.41222 1.99892,1.23424 2.65438,4.11954 1.36937,6.02801 -0.53908,0.80062 -1.88772,1.76707 -2.66815,1.912 z m 1.39008,-2.12107 c 0.85599,-1.0075 1.01331,-2.60926 0.36286,-3.69467 -0.64255,-1.07222 -1.31243,-1.41023 -4.76072,-2.40232 -4.1891,-1.20521 -4.59141,-1.24369 -5.99544,-0.5735 -1.55107,0.74039 -1.88474,1.32884 -2.9147,5.14013 -1.10038,4.07188 -0.98449,5.10898 0.69884,6.25408 1.83422,1.24773 3.53224,0.8607 5.17959,-1.1806 1.24657,-1.54468 2.45375,-2.18747 4.4476,-2.36826 1.59541,-0.14464 2.36392,-0.44744 2.98197,-1.17486 z m -19.96587,0.40721 c -2.0755,-0.0842 -4.15517,-1.90188 -4.36912,-3.81869 -0.29182,-2.61435 2.30457,-3.69052 5.02904,-2.08447 1.85963,1.09625 2.75056,3.22251 1.9456,4.64326 -0.50413,0.88979 -1.37296,1.30991 -2.60552,1.2599 z m 1.68951,-2.101 c 0.49304,-2.06189 -3.12075,-4.42222 -4.62346,-3.01979 -0.76525,0.71419 -0.17221,2.41197 1.16411,3.3327 1.45429,1.002 3.1823,0.8457 3.45935,-0.31291 z m 16.70977,-7.74495 c -1.28158,0.30264 -2.47313,-0.32777 -3.32513,-1.75921 -0.70106,-1.178 -0.85246,-2.13107 -0.55249,-3.4796 0.63385,-2.84952 3.70999,-3.20203 5.29857,-0.60719 1.41346,2.30884 0.67396,5.35128 -1.42095,5.846 z m 0.5454,-1.74653 c 1.23229,-1.72005 -0.3707,-5.20266 -2.16756,-4.7092 -1.04965,0.28828 -1.54111,2.21106 -0.95381,3.73165 0.33871,0.87696 1.33913,1.70004 2.02169,1.66332 0.68458,-0.0368 0.59456,0.0193 1.09969,-0.68573 z m -15.05575,4.76002 c -0.82141,0.25988 -2.54232,-0.24079 -3.3039,-0.96121 -2.11688,-2.00255 -2.31428,-5.32592 -0.38024,-6.40169 1.73635,-0.96582 3.72322,-0.18042 5.008,1.9796 1.39602,2.34694 0.81575,4.70638 -1.32386,5.3833 z m 0.65141,-1.88117 c 0.20607,-0.36368 0.3224,-0.98006 0.26585,-1.40869 -0.20281,-1.53738 -1.70485,-3.25849 -2.93435,-3.36229 -0.61442,-0.0519 -1.50308,0.41781 -1.70697,0.90217 -0.76198,1.81041 1.14355,4.75771 3.04466,4.70917 0.80805,-0.0206 0.89874,-0.0779 1.33078,-0.8404 z m 5.9863,-2.24422 c -2.47607,0.30853 -5.12323,-2.56871 -4.77476,-5.18974 0.45209,-3.40033 4.33116,-3.62859 6.32369,-0.3721 1.1877,1.94123 1.02839,3.97731 -0.39384,5.03204 -0.34396,0.25511 -0.86375,0.49352 -1.15509,0.5298 z m 0.89367,-1.89648 c 0.37702,-0.56674 0.34838,-1.72343 -0.0667,-2.69566 -0.63771,-1.4935 -2.54154,-2.55535 -3.56294,-1.9872 -2.00112,1.11308 -0.32941,5.36225 2.132,5.41914 0.86167,0.0199 1.05926,-0.0772 1.49767,-0.73629 z m 6.70428,-8.969401 c -1.97655,0.497611 -4.11921,-0.36137 -5.15571,-2.06692 -0.31124,-0.51122 -0.61069,-1.28507 -0.66636,-1.71914 -0.0557,-0.43408 0.26991,-2.29981 0.7235,-4.14606 1.00958,-4.10925 1.49658,-5.00315 3.26022,-5.98414 1.77065,-0.98489 2.75747,-0.94033 7.03671,0.31775 4.13084,1.21444 4.78435,1.59132 5.66021,3.26429 0.77754,1.48516 0.71511,2.68576 -0.21288,4.09363 -0.89798,1.36232 -2.08396,2.00192 -3.97917,2.14594 -1.78385,0.13556 -2.70285,0.61073 -3.73821,1.93286 -1.004,1.28207 -1.81648,1.88188 -2.92831,2.16179 z m 2.11506,-2.97301 c 1.06847,-1.35744 2.26099,-1.98747 4.14048,-2.18748 2.70161,-0.28749 4.03413,-1.54204 3.92976,-3.69978 -0.0342,-0.70675 -0.83389,-1.9827 -1.4966,-2.38783 -0.74657,-0.45641 -7.3597,-2.3009 -8.12666,-2.26663 -0.9522,0.0426 -2.00607,0.50198 -2.71314,1.18277 -0.53356,0.51374 -0.80495,1.18486 -1.58484,3.91924 -0.51757,1.81465 -0.94844,3.59968 -0.95751,3.96675 -0.0507,2.05388 1.75469,3.61177 3.96848,3.42442 1.0524,-0.0891 1.75304,-0.57049 2.84002,-1.95146 z m -11.60457,-3.09887 c -1.60871,0.51105 -3.83752,-0.52689 -4.88507,-2.27493 -1.00603,-1.67878 -0.76947,-3.12259 0.63985,-3.90504 0.92315,-0.51254 1.89474,-0.54184 3.01542,-0.091 3.39978,1.36785 4.17767,5.33445 1.2298,6.27092 z m 0.53186,-1.87878 c 0.66344,-1.82531 -2.40085,-4.29112 -4.18136,-3.36471 -0.67782,0.35263 -0.83214,0.81207 -0.57951,1.72493 0.28976,1.04701 1.46124,2.1088 2.62042,2.37504 1.38224,0.31747 1.81138,0.17005 2.14045,-0.73526 z m 16.50208,-7.79031 c -2.20912,0.28128 -4.22895,-2.72675 -3.58119,-5.33325 0.54791,-2.20472 2.45758,-2.99483 4.2512,-1.75891 0.86617,0.59686 1.35918,1.36518 1.65648,2.58151 0.52688,2.15567 -0.57258,4.28733 -2.32649,4.51065 z m 0.97728,-2.03301 c 0.4927,-0.84143 0.31309,-2.61232 -0.35315,-3.48195 -0.76318,-0.99618 -1.4518,-1.27543 -2.16576,-0.87831 -1.25362,0.69731 -1.35597,2.7791 -0.2126,4.32408 0.92665,1.25211 2.0111,1.26647 2.73151,0.0361 z m -15.94344,5.02155 c -2.22602,-0.14907 -4.18359,-2.19805 -4.3081,-4.50929 -0.17373,-3.22496 2.98861,-4.42785 5.5125,-2.09683 2.6884,2.48295 1.8988,6.81393 -1.2044,6.60612 z m 1.5845,-2.31961 c 0.4735,-1.70251 -0.81303,-3.83139 -2.59307,-4.29092 -2.61415,-0.67484 -2.95211,3.23505 -0.42989,4.97324 1.35655,0.93485 2.65469,0.64183 3.02298,-0.68233 z m 5.22143,-1.9049 c -1.71974,-0.11516 -3.35926,-1.43552 -3.91943,-3.15644 -0.91922,-2.82399 0.5709,-5.08021 3.04155,-4.60529 3.5063,0.67398 5.15768,5.88009 2.35895,7.43682 -0.42498,0.23639 -0.98113,0.3584 -1.48107,0.32491 z m 1.63781,-2.33197 c 0.2302,-0.91314 0.0937,-1.65098 -0.48072,-2.59928 -1.0332,-1.70554 -3.12499,-2.348 -3.84426,-1.18069 -0.70471,1.14367 -0.35627,2.88739 0.80803,4.04353 1.37453,1.36494 3.13977,1.23266 3.51695,-0.26356 z"
             id="path37700" />
          <path
             style="opacity:0.678068;fill:#ffffff;stroke-width:0.401072;stroke-miterlimit:4;stroke-dasharray:none"
             d="m 286.6978,96.816162 c -0.2818,0.0523 -1.07221,0.14914 -1.75648,0.21513 -1.59887,0.1542 -2.18262,0.49375 -3.38809,1.97079 -1.25406,1.536548 -2.24375,2.109928 -3.80082,2.202028 -2.55593,0.15112 -4.82234,-1.832588 -4.9174,-4.304028 -0.0449,-1.16939 1.65816,-7.41072 2.25106,-8.24927 0.72702,-1.02822 2.72373,-2.10144 4.06851,-2.18686 1.08766,-0.069 7.78066,1.75689 8.84201,2.41222 1.99892,1.23424 2.65438,4.11954 1.36937,6.02801 -0.53908,0.80062 -1.88772,1.76707 -2.66815,1.912 z m 1.39008,-2.12107 c 0.85599,-1.0075 1.01331,-2.60926 0.36286,-3.69467 -0.64255,-1.07222 -1.31243,-1.41023 -4.76072,-2.40232 -4.1891,-1.20521 -4.59141,-1.24369 -5.99544,-0.5735 -1.55107,0.74039 -1.88474,1.32884 -2.9147,5.14013 -1.10038,4.07188 -0.98449,5.10898 0.69884,6.25408 1.83422,1.247728 3.53224,0.860698 5.17959,-1.1806 1.24657,-1.54468 2.45375,-2.18747 4.4476,-2.36826 1.59541,-0.14464 2.36392,-0.44744 2.98197,-1.17486 z m -19.96587,0.40721 c -2.0755,-0.0842 -4.15517,-1.90188 -4.36912,-3.81869 -0.29182,-2.61435 2.30457,-3.69052 5.02904,-2.08447 1.85963,1.09625 2.75056,3.22251 1.9456,4.64326 -0.50413,0.88979 -1.37296,1.30991 -2.60552,1.2599 z m 1.68951,-2.101 c 0.49304,-2.06189 -3.12075,-4.42222 -4.62346,-3.01979 -0.76525,0.71419 -0.17221,2.41197 1.16411,3.3327 1.45429,1.002 3.1823,0.8457 3.45935,-0.31291 z m 16.70977,-7.74495 c -1.28158,0.30264 -2.47313,-0.32777 -3.32513,-1.75921 -0.70106,-1.178 -0.85246,-2.13107 -0.55249,-3.4796 0.63385,-2.84952 3.70999,-3.20203 5.29857,-0.60719 1.41346,2.30884 0.67396,5.35128 -1.42095,5.846 z m 0.5454,-1.74653 c 1.23229,-1.72005 -0.3707,-5.20266 -2.16756,-4.7092 -1.04965,0.28828 -1.54111,2.21106 -0.95381,3.73165 0.33871,0.87696 1.33913,1.70004 2.02169,1.66332 0.68458,-0.0368 0.59456,0.0193 1.09969,-0.68573 z m -15.05575,4.76002 c -0.82141,0.25988 -2.54232,-0.24079 -3.3039,-0.96121 -2.11688,-2.00255 -2.31428,-5.32592 -0.38024,-6.40169 1.73635,-0.96582 3.72322,-0.18042 5.008,1.9796 1.39602,2.34694 0.81575,4.70638 -1.32386,5.3833 z m 0.65141,-1.88117 c 0.20607,-0.36368 0.3224,-0.98006 0.26585,-1.40869 -0.20281,-1.53738 -1.70485,-3.25849 -2.93435,-3.36229 -0.61442,-0.0519 -1.50308,0.41781 -1.70697,0.90217 -0.76198,1.81041 1.14355,4.75771 3.04466,4.70917 0.80805,-0.0206 0.89874,-0.0779 1.33078,-0.8404 z m 5.9863,-2.24422 c -2.47607,0.30853 -5.12323,-2.56871 -4.77476,-5.18974 0.45209,-3.40033 4.33116,-3.62859 6.32369,-0.3721 1.1877,1.94123 1.02839,3.97731 -0.39384,5.03204 -0.34396,0.25511 -0.86375,0.49352 -1.15509,0.5298 z m 0.89367,-1.89648 c 0.37702,-0.56674 0.34838,-1.72343 -0.0667,-2.69566 -0.63771,-1.4935 -2.54154,-2.55535 -3.56294,-1.9872 -2.00112,1.11308 -0.32941,5.36225 2.132,5.41914 0.86167,0.0199 1.05926,-0.0772 1.49767,-0.73629 z m 6.70428,-8.969402 c -1.97655,0.49761 -4.11921,-0.36137 -5.15571,-2.06692 -0.31124,-0.51122 -0.61069,-1.28507 -0.66636,-1.71914 -0.0557,-0.43408 0.26991,-2.29981 0.7235,-4.14606 1.00958,-4.10925 1.49658,-5.00315 3.26022,-5.98414 1.77065,-0.98489 2.75747,-0.94033 7.03671,0.31775 4.13084,1.21444 4.78435,1.59132 5.66021,3.26429 0.77754,1.48516 0.71511,2.68576 -0.21288,4.09363 -0.89798,1.36232 -2.08396,2.00192 -3.97917,2.14594 -1.78385,0.13556 -2.70285,0.61073 -3.73821,1.93286 -1.004,1.28207 -1.81648,1.88188 -2.92831,2.16179 z m 2.11506,-2.97301 c 1.06847,-1.35744 2.26099,-1.98747 4.14048,-2.18748 2.70161,-0.28749 4.03413,-1.54204 3.92976,-3.69978 -0.0342,-0.70675 -0.83389,-1.9827 -1.4966,-2.38783 -0.74657,-0.45641 -7.3597,-2.3009 -8.12666,-2.26663 -0.9522,0.0426 -2.00607,0.50198 -2.71314,1.18277 -0.53356,0.51374 -0.80495,1.18486 -1.58484,3.91924 -0.51757,1.81465 -0.94844,3.59968 -0.95751,3.96675 -0.0507,2.05388 1.75469,3.61177 3.96848,3.42442 1.0524,-0.0891 1.75304,-0.57049 2.84002,-1.95146 z m -11.60457,-3.09887 c -1.60871,0.51105 -3.83752,-0.52689 -4.88507,-2.27493 -1.00603,-1.67878 -0.76947,-3.12259 0.63985,-3.90504 0.92315,-0.51254 1.89474,-0.54184 3.01542,-0.091 3.39978,1.36785 4.17767,5.33445 1.2298,6.27092 z m 0.53186,-1.87878 c 0.66344,-1.82531 -2.40085,-4.29112 -4.18136,-3.36471 -0.67782,0.35263 -0.83214,0.81207 -0.57951,1.72493 0.28976,1.04701 1.46124,2.1088 2.62042,2.37504 1.38224,0.31747 1.81138,0.17005 2.14045,-0.73526 z m 16.50208,-7.79031 c -2.20912,0.28128 -4.22895,-2.72675 -3.58119,-5.33325 0.54791,-2.20472 2.45758,-2.99483 4.2512,-1.75891 0.86617,0.59686 1.35918,1.36518 1.65648,2.58151 0.52688,2.15567 -0.57258,4.28733 -2.32649,4.51065 z m 0.97728,-2.03301 c 0.4927,-0.84143 0.31309,-2.61232 -0.35315,-3.48195 -0.76318,-0.99618 -1.4518,-1.27543 -2.16576,-0.87831 -1.25362,0.69731 -1.35597,2.7791 -0.2126,4.32408 0.92665,1.25211 2.0111,1.26647 2.73151,0.0361 z m -15.94344,5.02155 c -2.22602,-0.14907 -4.18359,-2.19805 -4.3081,-4.50929 -0.17373,-3.22496 2.98861,-4.42785 5.5125,-2.09683 2.6884,2.48295 1.8988,6.81393 -1.2044,6.60612 z m 1.5845,-2.31961 c 0.4735,-1.70251 -0.81303,-3.83139 -2.59307,-4.29092 -2.61415,-0.67484 -2.95211,3.23505 -0.42989,4.97324 1.35655,0.93485 2.65469,0.64183 3.02298,-0.68233 z m 5.22143,-1.9049 c -1.71974,-0.11516 -3.35926,-1.43552 -3.91943,-3.15644 -0.91922,-2.82399 0.5709,-5.08021 3.04155,-4.60529 3.5063,0.67398 5.15768,5.88009 2.35895,7.43682 -0.42498,0.23639 -0.98113,0.3584 -1.48107,0.32491 z m 1.63781,-2.33197 c 0.2302,-0.91314 0.0937,-1.65098 -0.48072,-2.59928 -1.0332,-1.70554 -3.12499,-2.348 -3.84426,-1.18069 -0.70471,1.14367 -0.35627,2.88739 0.80803,4.04353 1.37453,1.36494 3.13977,1.23266 3.51695,-0.26356 z"
             id="path37702" />
          <path
             style="opacity:0.678068;fill:#ffffff;stroke-width:0.401072;stroke-miterlimit:4;stroke-dasharray:none"
             d="m 260.20916,70.170551 c -0.2818,0.0523 -1.07221,0.14914 -1.75648,0.21513 -1.59887,0.1542 -2.18262,0.49375 -3.38809,1.97079 -1.25406,1.53655 -2.24375,2.10993 -3.80082,2.20203 -2.55593,0.15112 -4.82234,-1.83259 -4.9174,-4.30403 -0.0449,-1.16939 1.65816,-7.41072 2.25106,-8.24927 0.72702,-1.02822 2.72373,-2.10144 4.06851,-2.18686 1.08766,-0.069 7.78066,1.75689 8.84201,2.41222 1.99892,1.23424 2.65438,4.11954 1.36937,6.02801 -0.53908,0.80062 -1.88772,1.76707 -2.66815,1.912 z m 1.39008,-2.12107 c 0.85599,-1.0075 1.01331,-2.60926 0.36286,-3.69467 -0.64255,-1.07222 -1.31243,-1.41023 -4.76072,-2.40232 -4.1891,-1.20521 -4.59141,-1.24369 -5.99544,-0.5735 -1.55107,0.74039 -1.88474,1.32884 -2.9147,5.14013 -1.10038,4.07188 -0.98449,5.10898 0.69884,6.25408 1.83422,1.24773 3.53224,0.8607 5.17959,-1.1806 1.24657,-1.54468 2.45375,-2.18747 4.4476,-2.36826 1.59541,-0.14464 2.36392,-0.44744 2.98197,-1.17486 z m -19.96587,0.40721 c -2.0755,-0.0842 -4.15517,-1.90188 -4.36912,-3.81869 -0.29182,-2.61435 2.30457,-3.69052 5.02904,-2.08447 1.85963,1.09625 2.75056,3.22251 1.9456,4.64326 -0.50413,0.88979 -1.37296,1.30991 -2.60552,1.2599 z m 1.68951,-2.101 c 0.49304,-2.06189 -3.12075,-4.42222 -4.62346,-3.01979 -0.76525,0.71419 -0.17221,2.41197 1.16411,3.3327 1.45429,1.002 3.1823,0.8457 3.45935,-0.31291 z m 16.70977,-7.74495 c -1.28158,0.30264 -2.47313,-0.32777 -3.32513,-1.75921 -0.70106,-1.178 -0.85246,-2.13107 -0.55249,-3.4796 0.63385,-2.84952 3.70999,-3.20203 5.29857,-0.60719 1.41346,2.30884 0.67396,5.35128 -1.42095,5.846 z m 0.5454,-1.74653 c 1.23229,-1.72005 -0.3707,-5.20266 -2.16756,-4.7092 -1.04965,0.28828 -1.54111,2.21106 -0.95381,3.73165 0.33871,0.87696 1.33913,1.70004 2.02169,1.66332 0.68458,-0.0368 0.59456,0.0193 1.09969,-0.68573 z m -15.05575,4.76002 c -0.82141,0.25988 -2.54232,-0.24079 -3.3039,-0.96121 -2.11688,-2.00255 -2.31428,-5.32592 -0.38024,-6.40169 1.73635,-0.96582 3.72322,-0.18042 5.008,1.9796 1.39602,2.34694 0.81575,4.70638 -1.32386,5.3833 z m 0.65141,-1.88117 c 0.20607,-0.36368 0.3224,-0.98006 0.26585,-1.40869 -0.20281,-1.53738 -1.70485,-3.25849 -2.93435,-3.36229 -0.61442,-0.0519 -1.50308,0.41781 -1.70697,0.90217 -0.76198,1.81041 1.14355,4.75771 3.04466,4.70917 0.80805,-0.0206 0.89874,-0.0779 1.33078,-0.8404 z m 5.9863,-2.24422 c -2.47607,0.30853 -5.12323,-2.56871 -4.77476,-5.18974 0.45209,-3.40033 4.33116,-3.62859 6.32369,-0.3721 1.1877,1.94123 1.02839,3.97731 -0.39384,5.03204 -0.34396,0.25511 -0.86375,0.49352 -1.15509,0.5298 z m 0.89367,-1.89648 c 0.37702,-0.56674 0.34838,-1.72343 -0.0667,-2.69566 -0.63771,-1.4935 -2.54154,-2.55535 -3.56294,-1.9872 -2.00112,1.11308 -0.32941,5.36225 2.132,5.41914 0.86167,0.0199 1.05926,-0.0772 1.49767,-0.73629 z m 6.70428,-8.969402 c -1.97655,0.49761 -4.11921,-0.36137 -5.15571,-2.06692 -0.31124,-0.51122 -0.61069,-1.28507 -0.66636,-1.71914 -0.0557,-0.43408 0.26991,-2.29981 0.7235,-4.14606 1.00958,-4.10925 1.49658,-5.00315 3.26022,-5.98414 1.77065,-0.98489 2.75747,-0.94033 7.03671,0.31775 4.13084,1.21444 4.78435,1.59132 5.66021,3.26429 0.77754,1.48516 0.71511,2.68576 -0.21288,4.09363 -0.89798,1.36232 -2.08396,2.00192 -3.97917,2.14594 -1.78385,0.13556 -2.70285,0.61073 -3.73821,1.93286 -1.004,1.28207 -1.81648,1.88188 -2.92831,2.16179 z m 2.11506,-2.97301 c 1.06847,-1.35744 2.26099,-1.98747 4.14048,-2.18748 2.70161,-0.28749 4.03413,-1.54204 3.92976,-3.69978 -0.0342,-0.70675 -0.83389,-1.9827 -1.4966,-2.38783 -0.74657,-0.45641 -7.3597,-2.3009 -8.12666,-2.26663 -0.9522,0.0426 -2.00607,0.50198 -2.71314,1.18277 -0.53356,0.51374 -0.80495,1.18486 -1.58484,3.91924 -0.51757,1.81465 -0.94844,3.59968 -0.95751,3.96675 -0.0507,2.05388 1.75469,3.61177 3.96848,3.42442 1.0524,-0.0891 1.75304,-0.57049 2.84002,-1.95146 z m -11.60457,-3.09887 c -1.60871,0.51105 -3.83752,-0.52689 -4.88507,-2.27493 -1.00603,-1.67878 -0.76947,-3.12259 0.63985,-3.90504 0.92315,-0.51254 1.89474,-0.54184 3.01542,-0.091 3.39978,1.36785 4.17767,5.33445 1.2298,6.27092 z m 0.53186,-1.87878 c 0.66344,-1.82531 -2.40085,-4.29112 -4.18136,-3.36471 -0.67782,0.35263 -0.83214,0.81207 -0.57951,1.72493 0.28976,1.04701 1.46124,2.1088 2.62042,2.37504 1.38224,0.31747 1.81138,0.17005 2.14045,-0.73526 z m 16.50208,-7.79031 c -2.20912,0.28128 -4.22895,-2.72675 -3.58119,-5.33325 0.54791,-2.20472 2.45758,-2.99483 4.2512,-1.75891 0.86617,0.59686 1.35918,1.36518 1.65648,2.58151 0.52688,2.15567 -0.57258,4.28733 -2.32649,4.51065 z m 0.97728,-2.03301 c 0.4927,-0.84143 0.31309,-2.61232 -0.35315,-3.48195 -0.76318,-0.99618 -1.4518,-1.27543 -2.16576,-0.87831 -1.25362,0.69731 -1.35597,2.7791 -0.2126,4.32408 0.92665,1.25211 2.0111,1.26647 2.73151,0.0361 z m -15.94344,5.02155 c -2.22602,-0.14907 -4.18359,-2.19805 -4.3081,-4.50929 -0.17373,-3.22496 2.98861,-4.42785 5.5125,-2.09683 2.6884,2.48295 1.8988,6.81393 -1.2044,6.60612 z m 1.5845,-2.31961 c 0.4735,-1.70251 -0.81303,-3.83139 -2.59307,-4.29092 -2.61415,-0.67484 -2.95211,3.23505 -0.42989,4.97324 1.35655,0.93485 2.65469,0.64183 3.02298,-0.68233 z m 5.22143,-1.9049 c -1.71974,-0.11516 -3.35926,-1.43552 -3.91943,-3.15644 -0.91922,-2.82399 0.5709,-5.08021 3.04155,-4.60529 3.5063,0.67398 5.15768,5.88009 2.35895,7.43682 -0.42498,0.23639 -0.98113,0.3584 -1.48107,0.32491 z m 1.63781,-2.33197 c 0.2302,-0.91314 0.0937,-1.65098 -0.48072,-2.59928 -1.0332,-1.70554 -3.12499,-2.348 -3.84426,-1.18069 -0.70471,1.14367 -0.35627,2.88739 0.80803,4.04353 1.37453,1.36494 3.13977,1.23266 3.51695,-0.26356 z"
             id="path37704" />
          <path
             style="opacity:0.678068;fill:#ffffff;stroke-width:0.401072;stroke-miterlimit:4;stroke-dasharray:none"
             d="m 235.27867,46.151971 c -0.2818,0.0523 -1.07221,0.14914 -1.75648,0.21513 -1.59887,0.1542 -2.18262,0.49375 -3.38809,1.97079 -1.25406,1.53655 -2.24375,2.10993 -3.80082,2.20203 -2.55593,0.15112 -4.82234,-1.83259 -4.9174,-4.30403 -0.0449,-1.16939 1.65816,-7.41072 2.25106,-8.24927 0.72702,-1.02822 2.72373,-2.10144 4.06851,-2.18686 1.08766,-0.069 7.78066,1.75689 8.84201,2.41222 1.99892,1.23424 2.65438,4.11954 1.36937,6.02801 -0.53908,0.80062 -1.88772,1.76707 -2.66815,1.912 z m 1.39008,-2.12107 c 0.85599,-1.0075 1.01331,-2.60926 0.36286,-3.69467 -0.64255,-1.07222 -1.31243,-1.41023 -4.76072,-2.40232 -4.1891,-1.20521 -4.59141,-1.24369 -5.99544,-0.5735 -1.55107,0.74039 -1.88474,1.32884 -2.9147,5.14013 -1.10038,4.07188 -0.98449,5.10898 0.69884,6.25408 1.83422,1.24773 3.53224,0.8607 5.17959,-1.1806 1.24657,-1.54468 2.45375,-2.18747 4.4476,-2.36826 1.59541,-0.14464 2.36392,-0.44744 2.98197,-1.17486 z m -19.96587,0.40721 c -2.0755,-0.0842 -4.15517,-1.90188 -4.36912,-3.81869 -0.29182,-2.61435 2.30457,-3.69052 5.02904,-2.08447 1.85963,1.09625 2.75056,3.22251 1.9456,4.64326 -0.50413,0.88979 -1.37296,1.30991 -2.60552,1.2599 z m 1.68951,-2.101 c 0.49304,-2.06189 -3.12075,-4.42222 -4.62346,-3.01979 -0.76525,0.71419 -0.17221,2.41197 1.16411,3.3327 1.45429,1.002 3.1823,0.8457 3.45935,-0.31291 z m 16.70977,-7.74495 c -1.28158,0.30264 -2.47313,-0.32777 -3.32513,-1.75921 -0.70106,-1.178 -0.85246,-2.13107 -0.55249,-3.4796 0.63385,-2.84952 3.70999,-3.20203 5.29857,-0.60719 1.41346,2.30884 0.67396,5.35128 -1.42095,5.846 z m 0.5454,-1.74653 c 1.23229,-1.72005 -0.3707,-5.20266 -2.16756,-4.7092 -1.04965,0.28828 -1.54111,2.21106 -0.95381,3.73165 0.33871,0.87696 1.33913,1.70004 2.02169,1.66332 0.68458,-0.0368 0.59456,0.0193 1.09969,-0.68573 z m -15.05575,4.76002 c -0.82141,0.25988 -2.54232,-0.24079 -3.3039,-0.96121 -2.11688,-2.00255 -2.31428,-5.32592 -0.38024,-6.40169 1.73635,-0.96582 3.72322,-0.18042 5.008,1.9796 1.39602,2.34694 0.81575,4.70638 -1.32386,5.3833 z m 0.65141,-1.88117 c 0.20607,-0.36368 0.3224,-0.98006 0.26585,-1.40869 -0.20281,-1.53738 -1.70485,-3.25849 -2.93435,-3.36229 -0.61442,-0.0519 -1.50308,0.41781 -1.70697,0.90217 -0.76198,1.81041 1.14355,4.75771 3.04466,4.70917 0.80805,-0.0206 0.89874,-0.0779 1.33078,-0.8404 z m 5.9863,-2.24422 c -2.47607,0.30853 -5.12323,-2.56871 -4.77476,-5.18974 0.45209,-3.40033 4.33116,-3.62859 6.32369,-0.3721 1.1877,1.94123 1.02839,3.97731 -0.39384,5.03204 -0.34396,0.25511 -0.86375,0.49352 -1.15509,0.5298 z m 0.89367,-1.89648 c 0.37702,-0.56674 0.34838,-1.72343 -0.0667,-2.69566 -0.63771,-1.4935 -2.54154,-2.55535 -3.56294,-1.9872 -2.00112,1.11308 -0.32941,5.36225 2.132,5.41914 0.86167,0.0199 1.05926,-0.0772 1.49767,-0.73629 z m 6.70428,-8.969402 c -1.97655,0.49761 -4.11921,-0.36137 -5.15571,-2.06692 -0.31124,-0.51122 -0.61069,-1.28507 -0.66636,-1.71914 -0.0557,-0.43408 0.26991,-2.29981 0.7235,-4.14606 1.00958,-4.10925 1.49658,-5.0031495 3.26022,-5.9841395 1.77065,-0.98489 2.75747,-0.94033 7.03671,0.31775 4.13084,1.2144395 4.78435,1.5913195 5.66021,3.2642895 0.77754,1.48516 0.71511,2.68576 -0.21288,4.09363 -0.89798,1.36232 -2.08396,2.00192 -3.97917,2.14594 -1.78385,0.13556 -2.70285,0.61073 -3.73821,1.93286 -1.004,1.28207 -1.81648,1.88188 -2.92831,2.16179 z m 2.11506,-2.97301 c 1.06847,-1.35744 2.26099,-1.98747 4.14048,-2.18748 2.70161,-0.28749 4.03413,-1.54204 3.92976,-3.69978 -0.0342,-0.70675 -0.83389,-1.9827 -1.4966,-2.38783 -0.74657,-0.45641 -7.3597,-2.3008995 -8.12666,-2.2666295 -0.9522,0.0426 -2.00607,0.50198 -2.71314,1.1827695 -0.53356,0.51374 -0.80495,1.18486 -1.58484,3.91924 -0.51757,1.81465 -0.94844,3.59968 -0.95751,3.96675 -0.0507,2.05388 1.75469,3.61177 3.96848,3.42442 1.0524,-0.0891 1.75304,-0.57049 2.84002,-1.95146 z m -11.60457,-3.09887 c -1.60871,0.51105 -3.83752,-0.52689 -4.88507,-2.27493 -1.00603,-1.67878 -0.76947,-3.12259 0.63985,-3.90504 0.92315,-0.5125395 1.89474,-0.5418395 3.01542,-0.091 3.39978,1.36785 4.17767,5.33445 1.2298,6.27092 z m 0.53186,-1.87878 c 0.66344,-1.82531 -2.40085,-4.29112 -4.18136,-3.36471 -0.67782,0.35263 -0.83214,0.81207 -0.57951,1.72493 0.28976,1.04701 1.46124,2.1088 2.62042,2.37504 1.38224,0.31747 1.81138,0.17005 2.14045,-0.73526 z M 242.3719,6.8734095 c -2.20912,0.28128 -4.22895,-2.72675 -3.58119,-5.33325 0.54791,-2.20472002 2.45758,-2.99483 4.2512,-1.75891002 0.86617,0.59686 1.35918,1.36518002 1.65648,2.58151002 0.52688,2.15567 -0.57258,4.28733 -2.32649,4.51065 z m 0.97728,-2.03301 c 0.4927,-0.84143 0.31309,-2.61232 -0.35315,-3.48195 -0.76318,-0.99618002 -1.4518,-1.27543002 -2.16576,-0.87831002 -1.25362,0.69731002 -1.35597,2.77910002 -0.2126,4.32408002 0.92665,1.25211 2.0111,1.26647 2.73151,0.0361 z m -15.94344,5.02155 c -2.22602,-0.14907 -4.18359,-2.19805 -4.3081,-4.50929 -0.17373,-3.22496 2.98861,-4.42785002 5.5125,-2.09683 2.6884,2.48295 1.8988,6.8139295 -1.2044,6.60612 z m 1.5845,-2.31961 c 0.4735,-1.70251 -0.81303,-3.83139 -2.59307,-4.29092 -2.61415,-0.67484 -2.95211,3.23505 -0.42989,4.97324 1.35655,0.93485 2.65469,0.64183 3.02298,-0.68233 z m 5.22143,-1.9049 c -1.71974,-0.11516 -3.35926,-1.43552 -3.91943,-3.15644 -0.91922,-2.82399002 0.5709,-5.08021 3.04155,-4.60529 3.5063,0.67398 5.15768,5.88009 2.35895,7.43682 -0.42498,0.23639 -0.98113,0.3584 -1.48107,0.32491 z m 1.63781,-2.33197 c 0.2302,-0.91314 0.0937,-1.65098 -0.48072,-2.59928002 -1.0332,-1.70554 -3.12499,-2.34799998 -3.84426,-1.18069 -0.70471,1.14367 -0.35627,2.88739002 0.80803,4.04353002 1.37453,1.36494 3.13977,1.23266 3.51695,-0.26356 z"
             id="path37706" />
          <path
             style="opacity:0.678068;fill:#ffffff;stroke-width:0.401072;stroke-miterlimit:4;stroke-dasharray:none"
             d="m 208.79002,20.25694 c -0.2818,0.0523 -1.07221,0.14914 -1.75648,0.21513 -1.59887,0.1542 -2.18262,0.49375 -3.38809,1.97079 -1.25406,1.53655 -2.24375,2.10993 -3.80082,2.20203 -2.55593,0.15112 -4.82234,-1.83259 -4.9174,-4.30403 -0.0449,-1.16939 1.65816,-7.41072 2.25106,-8.24927 0.72702,-1.02822 2.72373,-2.10144 4.06851,-2.18686 1.08766,-0.069 7.78066,1.75689 8.84201,2.41222 1.99892,1.23424 2.65438,4.11954 1.36937,6.02801 -0.53908,0.80062 -1.88772,1.76707 -2.66815,1.912 z m 1.39008,-2.12107 c 0.85599,-1.0075 1.01331,-2.60926 0.36286,-3.69467 -0.64255,-1.07222 -1.31243,-1.41023 -4.76072,-2.40232 -4.1891,-1.20521 -4.59141,-1.24369 -5.99544,-0.5735 -1.55107,0.74039 -1.88474,1.32884 -2.9147,5.14013 -1.10038,4.07188 -0.98449,5.10898 0.69884,6.25408 1.83422,1.24773 3.53224,0.8607 5.17959,-1.1806 1.24657,-1.54468 2.45375,-2.18747 4.4476,-2.36826 1.59541,-0.14464 2.36392,-0.44744 2.98197,-1.17486 z m -19.96587,0.40721 c -2.0755,-0.0842 -4.15517,-1.90188 -4.36912,-3.81869 -0.29182,-2.61435 2.30457,-3.69052 5.02904,-2.08447 1.85963,1.09625 2.75056,3.22251 1.9456,4.64326 -0.50413,0.88979 -1.37296,1.30991 -2.60552,1.2599 z m 1.68951,-2.101 c 0.49304,-2.06189 -3.12075,-4.42222 -4.62346,-3.01979 -0.76525,0.71419 -0.17221,2.41197 1.16411,3.3327 1.45429,1.002 3.1823,0.8457 3.45935,-0.31291 z m 16.70977,-7.74495 c -1.28158,0.30264 -2.47313,-0.32777 -3.32513,-1.75921 -0.70106,-1.178 -0.85246,-2.13107 -0.55249,-3.4796 0.63385,-2.84952005 3.70999,-3.20203005 5.29857,-0.60719 1.41346,2.30884 0.67396,5.35128 -1.42095,5.846 z m 0.5454,-1.74653 c 1.23229,-1.72005 -0.3707,-5.20266 -2.16756,-4.7092 -1.04965,0.28828 -1.54111,2.21106 -0.95381,3.73165 0.33871,0.87696 1.33913,1.70004 2.02169,1.66332 0.68458,-0.0368 0.59456,0.0193 1.09969,-0.68573 z m -15.05575,4.76002 c -0.82141,0.25988 -2.54232,-0.24079 -3.3039,-0.96121 -2.11688,-2.00255 -2.31428,-5.32592 -0.38024,-6.40169 1.73635,-0.96582 3.72322,-0.18042 5.008,1.9796 1.39602,2.34694 0.81575,4.70638 -1.32386,5.3833 z m 0.65141,-1.88117 c 0.20607,-0.36368 0.3224,-0.98006 0.26585,-1.40869 -0.20281,-1.53738 -1.70485,-3.25849 -2.93435,-3.36229 -0.61442,-0.0519 -1.50308,0.41781 -1.70697,0.90217 -0.76198,1.81041 1.14355,4.75771 3.04466,4.70917 0.80805,-0.0206 0.89874,-0.0779 1.33078,-0.8404 z m 5.9863,-2.24422 c -2.47607,0.30853 -5.12323,-2.56871 -4.77476,-5.18974 0.45209,-3.40033 4.33116,-3.62859 6.32369,-0.3721 1.1877,1.94123 1.02839,3.97731 -0.39384,5.03204 -0.34396,0.25511 -0.86375,0.49352 -1.15509,0.5298 z m 0.89367,-1.89648 c 0.37702,-0.56674 0.34838,-1.72343 -0.0667,-2.69566 -0.63771,-1.4935 -2.54154,-2.55535005 -3.56294,-1.9872 -2.00112,1.11308 -0.32941,5.36225 2.132,5.41914 0.86167,0.0199 1.05926,-0.0772 1.49767,-0.73629 z m 6.70428,-8.969402 c -1.97655,0.49761 -4.11921,-0.36137 -5.15571,-2.06692 -0.31124,-0.51122 -0.61069,-1.28507 -0.66636,-1.71914 -0.0557,-0.43408 0.26991,-2.29981 0.7235,-4.14606 1.00958,-4.10925 1.49658,-5.00315 3.26022,-5.98414 1.77065,-0.98489 2.75747,-0.94033 7.03671,0.31775 4.13084,1.21444 4.78435,1.59132 5.66021,3.26429 0.77754,1.48516 0.71511,2.68576 -0.21288,4.09363 -0.89798,1.36232 -2.08396,2.00192 -3.97917,2.14594 -1.78385,0.13556 -2.70285,0.61073 -3.73821,1.93286 -1.004,1.28207 -1.81648,1.88188 -2.92831,2.16179 z m 2.11506,-2.97301 c 1.06847,-1.35744 2.26099,-1.98747 4.14048,-2.18748 2.70161,-0.28749 4.03413,-1.54204 3.92976,-3.69978 -0.0342,-0.70675 -0.83389,-1.9827 -1.4966,-2.38783 -0.74657,-0.45641 -7.3597,-2.3009 -8.12666,-2.26663 -0.9522,0.0426 -2.00607,0.50198 -2.71314,1.18277 -0.53356,0.51374 -0.80495,1.18486 -1.58484,3.91924 -0.51757,1.81465 -0.94844,3.59968 -0.95751,3.96675 -0.0507,2.05388 1.75469,3.61177 3.96848,3.42442 1.0524,-0.0891 1.75304,-0.57049 2.84002,-1.95146 z m -11.60457,-3.09887 c -1.60871,0.51105 -3.83752,-0.52689 -4.88507,-2.27493 -1.00603,-1.67878 -0.76947,-3.12259 0.63985,-3.90504 0.92315,-0.51254 1.89474,-0.54184 3.01542,-0.091 3.39978,1.36785 4.17767,5.33445 1.2298,6.27092 z m 0.53186,-1.87878 c 0.66344,-1.82531 -2.40085,-4.29112 -4.18136,-3.36471 -0.67782,0.35263 -0.83214,0.81207 -0.57951,1.72493 0.28976,1.04701 1.46124,2.1088 2.62042,2.37504 1.38224,0.31747 1.81138,0.17005 2.14045,-0.73526 z m 16.50208,-7.79031 c -2.20912,0.28128 -4.22895,-2.72675 -3.58119,-5.33325 0.54791,-2.20472 2.45758,-2.99483 4.2512,-1.75891 0.86617,0.59686 1.35918,1.36518 1.65648,2.58151 0.52688,2.15567 -0.57258,4.28733 -2.32649,4.51065 z m 0.97728,-2.03301 c 0.4927,-0.84143 0.31309,-2.61232 -0.35315,-3.48195 -0.76318,-0.99618 -1.4518,-1.27543 -2.16576,-0.87831 -1.25362,0.69731 -1.35597,2.7791 -0.2126,4.32408 0.92665,1.25211 2.0111,1.26647 2.73151,0.0361 z m -15.94344,5.02155 c -2.22602,-0.14907 -4.18359,-2.19805 -4.3081,-4.50929 -0.17373,-3.22496 2.98861,-4.42785 5.5125,-2.09683 2.6884,2.48295 1.8988,6.81393 -1.2044,6.60612 z m 1.5845,-2.31961 c 0.4735,-1.70251 -0.81303,-3.83139 -2.59307,-4.29092 -2.61415,-0.67484 -2.95211,3.23505 -0.42989,4.97324 1.35655,0.93485 2.65469,0.64183 3.02298,-0.68233 z m 5.22143,-1.9049 c -1.71974,-0.11516 -3.35926,-1.43552 -3.91943,-3.15644 -0.91922,-2.82399 0.5709,-5.08021 3.04155,-4.60529 3.5063,0.67398 5.15768,5.88009 2.35895,7.43682 -0.42498,0.23639 -0.98113,0.3584 -1.48107,0.32491 z m 1.63781,-2.33197 c 0.2302,-0.91314 0.0937,-1.65098 -0.48072,-2.59928 -1.0332,-1.70554 -3.12499,-2.348 -3.84426,-1.18069 -0.70471,1.14367 -0.35627,2.88739 0.80803,4.04353 1.37453,1.36494 3.13977,1.23266 3.51695,-0.26356 z"
             id="path37708" />
        </g>
        <path
           style="opacity:0.482897;fill:#ffffff;stroke-width:0.187658"
           d="m 629.80055,3.7504136 1.97415,-0.3317892 3.8697,2.6035943 3.8697,2.6035979 3.05779,-1.333508 c 1.68181,-0.7333707 3.26967,-1.3707819 3.52865,-1.4163163 0.37342,-0.065526 2.98698,1.6213442 12.62714,8.1507057 l 12.15629,8.233544 1.04841,-1.384493 c 0.57662,-0.761471 1.18936,-1.408181 1.36162,-1.437131 0.6019,-0.101164 1.10799,0.19039 1.19854,0.690459 0.0693,0.382505 -0.30271,1.02784 -1.69698,2.944106 l -1.78568,2.454208 4.14466,2.803096 c 2.27956,1.541693 4.22056,2.850454 4.31334,2.908353 0.0928,0.05793 0.48542,-0.320384 0.8726,-0.840532 0.68676,-0.922755 0.71762,-0.941186 1.26605,-0.756144 1.25673,0.424009 1.15866,0.62124 -3.41957,6.876996 -2.33846,3.195308 -4.39651,5.833974 -4.57345,5.863717 -0.35102,0.05902 -1.18622,-0.433084 -1.24009,-0.730636 -0.0185,-0.102032 0.25374,-0.615495 0.60493,-1.141038 l 0.63853,-0.955527 -4.29615,-2.912483 -4.29614,-2.912474 -1.79333,2.451109 c -1.83547,2.50868 -2.24465,2.834358 -2.95591,2.352674 -0.61716,-0.417944 -0.50526,-0.935655 0.51648,-2.389753 l 0.99721,-1.419176 -12.15735,-8.2321 c -7.98293,-5.40548 -12.17998,-8.357105 -12.22326,-8.596135 -0.0362,-0.200209 0.055,-1.856543 0.2028,-3.680735 l 0.26872,-3.316715 -5.02678,-3.4088611 -5.02679,-3.4088674 z m 21.39143,21.4116904 11.77772,7.977213 3.38155,-4.630856 3.38154,-4.630857 -1.15111,-0.789953 -1.15111,-0.789953 -1.66024,2.240334 c -0.91313,1.232188 -1.76324,2.257652 -1.88911,2.27881 -0.52236,0.08779 -1.02867,-0.232261 -1.11414,-0.704268 -0.0685,-0.378447 0.27221,-0.985878 1.50185,-2.677321 l 1.59049,-2.187788 -1.48732,-1.007241 -1.48732,-1.00724 -0.8253,1.116245 c -0.91862,1.242466 -1.44651,1.466926 -2.0325,0.864251 -0.46799,-0.481322 -0.38711,-0.764088 0.59177,-2.068963 l 0.71687,-0.955582 -1.48766,-1.015733 -1.48767,-1.015731 -1.65966,2.239565 c -0.91281,1.23177 -1.76265,2.256885 -1.88853,2.278041 -0.52236,0.08779 -1.02868,-0.232268 -1.11414,-0.704274 -0.0685,-0.378456 0.27221,-0.98588 1.50184,-2.677323 l 1.59049,-2.187787 -1.48731,-1.007242 -1.48732,-1.007241 -0.8253,1.116245 c -0.91863,1.24246 -1.44651,1.466926 -2.03249,0.864249 -0.468,-0.481319 -0.38713,-0.76408 0.59175,-2.068958 l 0.71687,-0.955593 -1.48766,-1.015733 -1.48766,-1.01573 -1.65966,2.239574 c -0.91282,1.231761 -1.79341,2.262042 -1.95687,2.289511 -0.42444,0.07133 -0.98023,-0.353611 -1.06342,-0.813052 -0.0462,-0.255051 0.48501,-1.15707 1.51889,-2.579228 l 1.58991,-2.1870069 -0.8235,-0.5576932 -0.8235,-0.5576823 -3.14481,1.3355566 -3.14476,1.3356458 -0.21909,3.057796 c -0.1205,1.681783 -0.20356,3.181106 -0.18458,3.331811 0.019,0.150721 5.33447,3.863767 11.81222,8.251226 z m 25.44599,10.308213 1.82598,-2.502654 -4.30962,-2.921613 -4.30962,-2.921623 -1.83087,2.502397 -1.83086,2.502406 4.31451,2.921871 4.3145,2.921861 z"
           id="path39251" />
        <path
           style="opacity:0.44668;fill:#ffffff;stroke-width:0.135932"
           d="m 648.61933,72.950726 c 0.12825,-2.15201 1.47157,-3.97914 3.53153,-4.80348 0.61477,-0.24602 0.654,-0.28937 0.56178,-0.62094 -0.18211,-0.65478 -0.0325,-2.1383 0.30215,-2.99576 1.75702,-4.50212 8.30376,-4.62142 10.44746,-0.19038 0.53784,1.11174 0.56314,2.76431 0.0616,4.02468 -0.0955,0.23996 0.60448,0.66566 6.34178,3.85693 l 6.44912,3.5872 0.87698,-0.77043 c 1.02692,-0.90217 1.97274,-1.32297 3.13364,-1.39421 2.48806,-0.15268 4.61942,1.04927 5.69034,3.209 0.71792,1.44784 0.63266,3.25787 -0.22653,4.80893 -0.52472,0.94726 -1.74685,2.03333 -2.71449,2.41228 l -0.69268,0.27127 0.0744,0.89846 c 0.26122,3.15537 -2.2907,5.91581 -5.4999,5.94931 -2.22134,0.0232 -4.2731,-1.20634 -5.2286,-3.13329 -0.51974,-1.04817 -0.61606,-2.06598 -0.31909,-3.37163 l 0.254,-1.11661 -6.4064,-3.56451 c -3.52352,-1.96049 -6.44784,-3.55382 -6.49849,-3.54074 -0.0506,0.0131 -0.33389,0.27173 -0.62941,0.57479 -1.76547,1.81052 -4.56056,2.10394 -6.86614,0.7208 -1.24334,-0.74591 -1.87238,-1.53959 -2.35119,-2.96662 -0.25981,-0.77443 -0.32948,-1.21443 -0.29186,-1.84505 z m 2.37898,2.8571 c 0.27967,0.34147 0.80588,0.75647 1.23226,0.97185 1.97868,0.99952 4.17893,0.48375 5.557,-1.30263 0.22108,-0.28658 0.51344,-0.54984 0.64968,-0.58501 0.32381,-0.0836 14.7277,7.91927 14.81439,8.23093 0.0351,0.12645 -0.092,0.57821 -0.28249,1.00393 -0.44726,0.99936 -0.48633,1.62585 -0.17061,2.73548 0.63574,2.23429 2.77558,3.40222 5.14194,2.80644 0.83468,-0.20985 1.11754,-0.3471 1.66298,-0.80503 1.29699,-1.08891 1.74758,-2.53252 1.30967,-4.19591 -0.15611,-0.59302 -0.21467,-1.07928 -0.14414,-1.19697 0.0704,-0.11751 0.54613,-0.31599 1.16841,-0.48749 1.27088,-0.35026 2.14729,-1.01154 2.68665,-2.02717 0.54266,-1.02184 0.6235,-1.8243 0.29956,-2.97374 -0.22642,-0.80439 -0.37913,-1.09516 -0.84278,-1.60774 -1.76881,-1.95549 -4.91683,-1.83944 -6.59844,0.24325 -0.3031,0.3754 -0.65496,0.70935 -0.7819,0.74212 -0.31768,0.082 -14.71499,-7.9387 -14.80022,-8.24518 -0.0367,-0.13187 0.0536,-0.50793 0.20071,-0.83568 0.87092,-1.94084 0.2831,-3.99684 -1.48515,-5.19446 -1.89192,-1.28139 -4.73893,-0.66473 -5.96019,1.29098 -0.61806,0.98976 -0.7456,1.8874 -0.45781,3.22196 0.13634,0.63229 0.19953,1.19909 0.14041,1.25957 -0.0591,0.0605 -0.56481,0.2395 -1.12376,0.39782 -1.98136,0.56121 -3.22883,2.11702 -3.22197,4.01833 0.002,0.68284 0.48482,1.89833 1.00579,2.53436 z"
           id="path39565" />
        <path
           style="opacity:0.561368;fill:#ffffff;stroke-width:0.12656"
           d="m 630.2405,32.958499 c 0.26434,1.058224 0.33517,1.812143 0.26689,2.841175 -0.14573,2.196338 -1.43258,4.425802 -3.33222,5.77297 -0.83814,0.594405 -2.71403,1.322231 -3.73222,1.448266 -2.29791,0.284058 -2.73815,0.149368 -11.84686,-3.624327 l -7.99499,-3.312285 -0.99775,-0.886144 c -1.18488,-1.052326 -1.61815,-1.653445 -2.20004,-3.052316 -0.8361,-2.009987 -0.82167,-3.91902 0.0446,-5.89766 0.91828,-2.097486 2.31847,-3.431512 4.48887,-4.276762 1.76479,-0.686572 3.29243,-0.806258 5.02258,-0.391396 1.17343,0.281355 16.19751,6.501623 17.0379,7.054019 1.4708,0.966777 2.87085,2.833598 3.24332,4.324639 z m -4.18617,-1.654668 c -0.63272,-0.569115 -1.13909,-0.823003 -4.07141,-2.041403 l -3.34881,-1.391457 -2.17115,4.88952 -2.17115,4.889512 3.35725,1.372456 c 2.94218,1.202781 3.47923,1.37914 4.34392,1.426468 1.73856,0.09516 3.64878,-0.72665 4.64712,-1.99928 0.80168,-1.021926 1.20951,-2.277267 1.15449,-3.553606 -0.027,-0.626708 -0.13003,-0.991407 -0.52563,-1.860862 -0.4284,-0.941536 -0.5855,-1.165455 -1.21463,-1.731348 z M 612.6255,25.403323 c -2.87815,-1.173177 -3.44588,-1.359199 -4.30221,-1.409673 -0.9297,-0.0548 -1.06268,-0.02875 -2.30927,0.452561 -1.28576,0.496429 -1.34302,0.532444 -2.04633,1.288705 -0.88464,0.95116 -1.34708,2.019941 -1.42868,3.301887 -0.0549,0.863258 -0.0248,1.003982 0.46992,2.193269 0.50375,1.211018 0.56355,1.301289 1.27074,1.91828 0.63414,0.55324 1.22026,0.847409 4.02834,2.021758 1.80742,0.755874 3.34209,1.352731 3.41039,1.326362 0.16182,-0.06248 4.33339,-9.458241 4.27066,-9.618969 -0.0263,-0.06749 -1.53992,-0.730836 -3.36356,-1.47418 z"
           id="path39603" />
        <path
           style="opacity:1;fill:#7f2aff;stroke-width:0.276656"
           d="m 89.813404,181.49854 c -1.20455,-0.50566 -2.61044,-2.14992 -2.83816,-3.31937 -0.20011,-1.02768 0.0598,-2.4108 2.13734,-11.37321 1.25777,-5.42599 1.88841,-7.14652 3.43995,-9.38499 1.3077,-1.88668 2.21473,-2.3861 3.20182,-1.76299 1.14471,0.7226 1.12675,1.4022 -0.0816,3.09004 -1.29917,1.81463 -2.09854,3.59045 -2.71044,6.02132 -0.72254,2.8704 -2.72084,12.09896 -2.72084,12.56542 0,0.58353 0.76864,1.28361 1.4093,1.28361 0.82639,0 1.30387,-0.65441 1.93264,-2.64876 1.62147,-5.14309 6.581626,-9.34589 12.452106,-10.55082 4.06635,-0.83463 8.91193,-0.024 12.54842,2.09937 3.18865,1.86184 6.42046,5.78302 7.35824,8.92781 0.51932,1.74153 0.82062,2.1724 1.51913,2.1724 1.17569,0 1.34514,-0.59648 1.1849,-4.17106 -0.30882,-6.88935 0.8566,-14.36678 2.78147,-17.84611 1.99858,-3.61256 3.7597,-4.31043 11.52152,-4.5656 4.42613,-0.14551 5.67368,-0.27257 6.40753,-0.65259 1.34725,-0.69766 1.84992,-1.85872 1.99319,-4.60383 l 0.12402,-2.37606 -3.34633,-0.004 c -1.84048,-0.002 -3.48588,-0.0939 -3.65645,-0.20366 -0.49688,-0.31964 -0.95824,-1.32751 -0.95824,-2.09332 0,-0.88598 -0.86244,-2.53369 -1.73804,-3.32056 -1.15818,-1.04082 -2.58451,-1.43859 -5.15847,-1.43859 h -2.4049 v 5.11107 c 0,6.09342 -0.25134,7.10511 -2.24146,9.02244 -3.58162,3.45061 -9.51571,2.56837 -11.70364,-1.74002 -0.75035,-1.47756 -0.75687,-1.54011 -0.65942,-6.33191 0.091,-4.47637 0.15013,-4.94152 0.78736,-6.19736 0.87983,-1.73398 3.14017,-3.91939 4.89839,-4.73601 1.66465,-0.77316 4.83236,-1.06514 6.0939,-0.56171 0.46995,0.18754 1.21802,0.73992 1.66239,1.22752 l 0.80795,0.88655 3.20725,0.111 c 2.80435,0.0971 3.39196,0.20321 4.6776,0.84504 0.80868,0.40372 1.93303,1.17981 2.49854,1.72463 0.96641,0.93107 2.3641,3.3494 2.3702,4.10101 0.002,0.25331 0.89678,0.33944 3.526,0.33944 4.52472,0 4.65163,0.0908 4.64855,3.32648 -0.004,4.48529 -0.95571,7.47725 -2.87307,9.03481 -1.76716,1.43553 -2.48271,1.58224 -8.54011,1.75108 -5.08384,0.14169 -5.76519,0.21722 -6.94116,0.7695 -3.12757,1.46881 -4.59869,7.39082 -4.43447,17.85102 0.0764,4.86776 0.0662,4.96592 -0.61517,5.93551 -0.77579,1.10388 -2.55983,2.0671 -3.81185,2.05808 -1.30765,-0.009 -3.15321,-0.95676 -3.77116,-1.93574 -0.30797,-0.48789 -0.81694,-1.70222 -1.13105,-2.6985 -1.96299,-6.22636 -9.59857,-10.21842 -16.35966,-8.55322 -2.57768,0.63486 -4.00634,1.3621 -5.83737,2.9714 -2.010396,1.76697 -3.043556,3.33305 -3.786446,5.73961 -0.32304,1.04648 -0.84573,2.25297 -1.16153,2.68109 -1.12208,1.52115 -3.85308,2.20185 -5.70868,1.42289 z m 13.111696,-0.16468 c -0.31004,-0.2987 -0.56372,-0.78749 -0.56372,-1.0862 0,-0.6378 0.94338,-1.62929 1.55023,-1.62929 0.5363,0 0.5363,-0.79055 0,-2.7155 -0.60495,-2.17138 -0.54554,-2.89703 0.27981,-3.41804 1.09578,-0.69173 1.98841,-0.32199 2.51433,1.04147 0.86036,2.23052 1.29948,4.66599 1.01411,5.62461 -0.66143,2.22189 -3.44087,3.48732 -4.79476,2.18295 z m 38.10981,-10.22866 c -1.93291,-0.9178 -2.67228,-2.88582 -1.40536,-3.74075 0.84979,-0.57344 1.16375,-0.53587 2.14076,0.25616 0.9927,0.80475 1.76387,0.86323 2.40352,0.18228 0.64865,-0.69053 0.5933,-1.03053 -0.41397,-2.54281 -1.04841,-1.57404 -2.7178,-2.5941 -4.63863,-2.83439 -1.66506,-0.20829 -2.37299,-0.73496 -2.37299,-1.76542 0,-1.81911 2.5581,-2.04213 5.81267,-0.50677 3.15966,1.49058 5.73073,5.05841 5.34031,7.41064 -0.255,1.53638 -1.05445,2.68133 -2.36932,3.39329 -1.32416,0.717 -3.1704,0.77767 -4.49699,0.14777 z M 97.216304,153.34099 c -2.65046,-0.60182 -5.80847,-2.81474 -7.11369,-4.98478 -0.36449,-0.606 -1.4437,-2.91838 -2.39825,-5.13862 -1.86307,-4.3334 -1.95777,-5.1024 -0.69654,-5.65603 1.33252,-0.58493 1.88035,-0.0182 3.37005,3.48628 2.08661,4.90871 2.81105,6.16645 4.25908,7.39444 2.15331,1.82608 2.88407,1.93493 12.989986,1.93493 8.45161,0 8.85142,0.0231 9.39114,0.5431 0.71768,0.69143 0.71768,1.48096 0,2.1724 -0.54165,0.52183 -0.91955,0.54203 -9.65369,0.51582 -4.99948,-0.015 -9.566116,-0.1354 -10.148086,-0.26754 z m 39.531936,-11.11027 c -0.31004,-0.2987 -0.56372,-0.78749 -0.56372,-1.0862 0,-0.69939 0.96522,-1.62929 1.69116,-1.62929 0.31005,0 0.81739,0.24439 1.12744,0.5431 0.31004,0.2987 0.56372,0.78749 0.56372,1.08619 0,0.29871 -0.25368,0.7875 -0.56372,1.0862 -0.31005,0.29871 -0.81739,0.5431 -1.12744,0.5431 -0.31005,0 -0.81739,-0.24439 -1.12744,-0.5431 z"
           id="path43032"
           clip-path="url(#clipPath43729)"
           transform="translate(4.6960237,-0.26613247)" />
      </g>
    </g>
  </g>
</svg>
