<?xml version="1.0" encoding="UTF-8" standalone="no"?>
<!-- Created with Inkscape (http://www.inkscape.org/) -->

<svg
   width="180"
   height="180"
   viewBox="0 0 180 180"
   version="1.1"
   id="svg5"
   sodipodi:docname="Veterinary.svg"
   inkscape:version="1.1.2 (b8e25be833, 2022-02-05)"
   xmlns:inkscape="http://www.inkscape.org/namespaces/inkscape"
   xmlns:sodipodi="http://sodipodi.sourceforge.net/DTD/sodipodi-0.dtd"
   xmlns:xlink="http://www.w3.org/1999/xlink"
   xmlns="http://www.w3.org/2000/svg"
   xmlns:svg="http://www.w3.org/2000/svg">
  <sodipodi:namedview
     id="namedview7"
     pagecolor="#ffffff"
     bordercolor="#999999"
     borderopacity="1"
     inkscape:pageshadow="0"
     inkscape:pageopacity="0"
     inkscape:pagecheckerboard="0"
     inkscape:document-units="px"
     showgrid="false"
     inkscape:zoom="3.0277778"
     inkscape:cx="115.76147"
     inkscape:cy="109.98165"
     inkscape:window-width="1366"
     inkscape:window-height="705"
     inkscape:window-x="-8"
     inkscape:window-y="-8"
     inkscape:window-maximized="1"
     inkscape:current-layer="g15613" />
  <defs
     id="defs2">
    <inkscape:path-effect
       effect="bspline"
       id="path-effect30103"
       is_visible="true"
       lpeversion="1"
       weight="33.333333"
       steps="2"
       helper_size="0"
       apply_no_weight="true"
       apply_with_weight="true"
       only_selected="false" />
    <inkscape:path-effect
       effect="spiro"
       id="path-effect24099"
       is_visible="true"
       lpeversion="1" />
    <inkscape:path-effect
       effect="spiro"
       id="path-effect21944"
       is_visible="true"
       lpeversion="1" />
    <linearGradient
       inkscape:collect="always"
       id="linearGradient21590">
      <stop
         style="stop-color:#ab37c8;stop-opacity:1"
         offset="0"
         id="stop21586" />
      <stop
         style="stop-color:#c837ab;stop-opacity:1"
         offset="1"
         id="stop21588" />
    </linearGradient>
    <inkscape:path-effect
       effect="spiro"
       id="path-effect20235"
       is_visible="true"
       lpeversion="1" />
    <inkscape:path-effect
       effect="spiro"
       id="path-effect12891"
       is_visible="true"
       lpeversion="1" />
    <inkscape:path-effect
       effect="spiro"
       id="path-effect12774"
       is_visible="true"
       lpeversion="1" />
    <inkscape:path-effect
       effect="bspline"
       id="path-effect10798"
       is_visible="true"
       lpeversion="1"
       weight="33.333333"
       steps="2"
       helper_size="0"
       apply_no_weight="true"
       apply_with_weight="true"
       only_selected="false" />
    <inkscape:path-effect
       effect="bspline"
       id="path-effect10533"
       is_visible="true"
       lpeversion="1"
       weight="33.333333"
       steps="2"
       helper_size="0"
       apply_no_weight="true"
       apply_with_weight="true"
       only_selected="false" />
    <inkscape:path-effect
       effect="spiro"
       id="path-effect4446"
       is_visible="true"
       lpeversion="1" />
    <inkscape:path-effect
       effect="bspline"
       id="path-effect875"
       is_visible="true"
       lpeversion="1"
       weight="33.333333"
       steps="2"
       helper_size="0"
       apply_no_weight="true"
       apply_with_weight="true"
       only_selected="false" />
    <inkscape:path-effect
       effect="bspline"
       id="path-effect871"
       is_visible="true"
       lpeversion="1"
       weight="33.333333"
       steps="2"
       helper_size="0"
       apply_no_weight="true"
       apply_with_weight="true"
       only_selected="false" />
    <clipPath
       clipPathUnits="userSpaceOnUse"
       id="clipPath10494">
      <rect
         style="fill:#2ca02c;fill-opacity:1;stroke:#000000;stroke-width:4.7;stroke-miterlimit:4;stroke-dasharray:none"
         id="rect10496"
         width="102.75065"
         height="46.420605"
         x="50.211071"
         y="86.409744"
         ry="2.2990799" />
    </clipPath>
    <clipPath
       clipPathUnits="userSpaceOnUse"
       id="clipPath10494-5">
      <rect
         style="fill:#2ca02c;fill-opacity:1;stroke:#000000;stroke-width:4.7;stroke-miterlimit:4;stroke-dasharray:none"
         id="rect10496-6"
         width="102.75065"
         height="46.420605"
         x="50.211071"
         y="86.409744"
         ry="2.2990799" />
    </clipPath>
    <inkscape:path-effect
       effect="bspline"
       id="path-effect10533-2"
       is_visible="true"
       lpeversion="1"
       weight="33.333333"
       steps="2"
       helper_size="0"
       apply_no_weight="true"
       apply_with_weight="true"
       only_selected="false" />
    <inkscape:path-effect
       effect="bspline"
       id="path-effect10798-1"
       is_visible="true"
       lpeversion="1"
       weight="33.333333"
       steps="2"
       helper_size="0"
       apply_no_weight="true"
       apply_with_weight="true"
       only_selected="false" />
    <inkscape:path-effect
       effect="bspline"
       id="path-effect11287"
       is_visible="true"
       lpeversion="1"
       weight="33.333333"
       steps="2"
       helper_size="0"
       apply_no_weight="true"
       apply_with_weight="true"
       only_selected="false" />
    <clipPath
       clipPathUnits="userSpaceOnUse"
       id="clipPath26301">
      <rect
         style="opacity:1;fill:none;fill-opacity:1;stroke:#000000;stroke-width:3.971;stroke-miterlimit:4;stroke-dasharray:none"
         id="rect26303"
         width="71.61586"
         height="39.274807"
         x="72.027039"
         y="70.518784"
         ry="1.3498986" />
    </clipPath>
    <inkscape:path-effect
       effect="bspline"
       id="path-effect26444"
       is_visible="true"
       lpeversion="1"
       weight="33.333333"
       steps="2"
       helper_size="0"
       apply_no_weight="true"
       apply_with_weight="true"
       only_selected="false" />
    <linearGradient
       inkscape:collect="always"
       xlink:href="#linearGradient21590"
       id="linearGradient29753"
       x1="106.92471"
       y1="117.55806"
       x2="107.47559"
       y2="42.19289"
       gradientUnits="userSpaceOnUse" />
    <linearGradient
       inkscape:collect="always"
       xlink:href="#linearGradient21590"
       id="linearGradient32249"
       gradientUnits="userSpaceOnUse"
       x1="106.92471"
       y1="117.55806"
       x2="107.47559"
       y2="42.19289" />
    <linearGradient
       inkscape:collect="always"
       xlink:href="#linearGradient21590"
       id="linearGradient32251"
       gradientUnits="userSpaceOnUse"
       x1="106.92471"
       y1="117.55806"
       x2="107.47559"
       y2="42.19289" />
    <linearGradient
       inkscape:collect="always"
       xlink:href="#linearGradient21590"
       id="linearGradient32253"
       gradientUnits="userSpaceOnUse"
       x1="106.92471"
       y1="117.55806"
       x2="107.47559"
       y2="42.19289" />
    <linearGradient
       inkscape:collect="always"
       xlink:href="#linearGradient21590"
       id="linearGradient32255"
       gradientUnits="userSpaceOnUse"
       x1="106.92471"
       y1="117.55806"
       x2="107.47559"
       y2="42.19289" />
  </defs>
  <g
     inkscape:label="Camada 1"
     inkscape:groupmode="layer"
     id="layer1">
    <g
       id="g15613"
       transform="matrix(1.1990579,0,0,1.2445824,-39.135235,-10.812303)">
      <path
         style="fill:#f6d5ff;fill-opacity:1;stroke:none;stroke-width:1px;stroke-linecap:butt;stroke-linejoin:miter;stroke-opacity:1"
         d="m 104.15877,140.02399 c -5.829604,1.76153 -11.916174,2.876 -17.997561,2.55349 -6.081387,-0.32252 -12.175762,-2.15011 -17.033412,-5.82305 -3.469662,-2.62347 -6.20819,-6.09138 -8.650338,-9.69097 -2.442149,-3.59959 -4.630671,-7.37303 -7.230373,-10.86053 C 48.703527,110.10774 42.948982,104.94603 38.817233,98.564505 36.751358,95.373741 35.102129,91.86743 34.383514,88.134817 33.664899,84.402203 33.91881,80.4258 35.498057,76.96823 c 1.942933,-4.253816 5.684475,-7.393856 9.509395,-10.084565 3.824921,-2.69071 7.905475,-5.129986 11.042113,-8.598623 2.837274,-3.137586 4.776986,-6.991701 6.24086,-10.960535 1.463875,-3.968833 2.481544,-8.085239 3.693892,-12.137989 1.212348,-4.052751 2.63713,-8.081029 4.83774,-11.693768 2.200609,-3.61274 5.236083,-6.813228 9.048573,-8.646121 4.002933,-1.92445 8.655909,-2.233427 13.026974,-1.445534 4.371066,0.787892 8.494096,2.617388 12.361516,4.801426 7.73485,4.368077 14.73739,10.253563 23.1878,12.991897 5.11287,1.656814 10.5276,2.079776 15.83349,2.936508 5.3059,0.856733 10.70452,2.232276 14.99377,5.470927 4.45675,3.365125 7.3171,8.461139 9.18752,13.723099 1.87042,5.26196 2.86737,10.788057 4.35779,16.170003 2.24077,8.091491 5.61059,15.913488 6.78176,24.22743 0.58559,4.156972 0.60507,8.429815 -0.35413,12.516775 -0.9592,4.08696 -2.93572,7.98696 -5.96055,10.89793 -3.81064,3.66719 -9.01033,5.55002 -14.19769,6.57985 -5.18736,1.02983 -10.50009,1.30578 -15.69541,2.29466 -13.66293,2.60062 -25.92101,9.98939 -39.2347,14.01239 z"
         id="path12889"
         inkscape:path-effect="#path-effect12891"
         inkscape:original-d="M 104.15877,140.02399 C 86.720132,148.74181 81.117176,138.31237 69.127797,136.75443 57.138418,135.1965 59.320122,134.73142 53.247086,116.20293 47.17405,97.67443 40.948321,83.196959 35.498057,76.96823 30.047794,70.739501 49.200062,64.513771 56.049565,58.285042 62.899067,52.056312 73.6439,33.219431 79.87063,14.846629 c 6.226729,-18.3728025 28.49286,10.12106 48.57629,16.347789 20.08343,6.22673 19.92974,3.581945 30.82726,8.407435 10.89753,4.825491 16.81587,18.217109 13.54531,29.893102 -3.27056,11.675992 -14.32278,33.319355 0.46708,47.642135 14.78986,14.32278 -15.25694,3.73763 -29.8931,8.87451 -14.63617,5.13687 -21.79606,5.29457 -39.2347,14.01239 z"
         sodipodi:nodetypes="ssssssssssss" />
      <path
         style="opacity:0.286765;fill:#f6d5ff;fill-opacity:1;stroke:none;stroke-width:1px;stroke-linecap:butt;stroke-linejoin:miter;stroke-opacity:1"
         d="m 247.50909,140.02399 c -5.82961,1.76153 -11.91618,2.876 -17.99756,2.55349 -6.08139,-0.32252 -12.17577,-2.1501 -17.03342,-5.82305 -3.46966,-2.62347 -6.20819,-6.09138 -8.65034,-9.69097 -2.44215,-3.59959 -4.63067,-7.37303 -7.23037,-10.86053 -4.54356,-6.09519 -10.2981,-11.2569 -14.42985,-17.638423 -2.06588,-3.190763 -3.71511,-6.697073 -4.43372,-10.429686 -0.71862,-3.732613 -0.46471,-7.709016 1.11454,-11.166586 1.94293,-4.253816 5.68447,-7.393857 9.5094,-10.084566 3.82492,-2.690709 7.90547,-5.129986 11.04211,-8.598622 2.83727,-3.137586 4.77699,-6.991701 6.24086,-10.960535 1.46388,-3.968834 2.48155,-8.08524 3.6939,-12.13799 1.21234,-4.05275 2.63713,-8.081029 4.83774,-11.693769 2.20061,-3.612739 5.23608,-6.813228 9.04857,-8.64612 4.00293,-1.92445 8.65591,-2.233426 13.02697,-1.445534 4.37107,0.787893 8.4941,2.617389 12.36152,4.801427 7.73485,4.368077 14.73739,10.253563 23.1878,12.991897 5.11287,1.656814 10.5276,2.079776 15.83349,2.936508 5.3059,0.856732 10.70452,2.232276 14.99377,5.470927 4.45675,3.365125 7.3171,8.461139 9.18752,13.723099 1.87042,5.26196 2.86737,10.788057 4.35779,16.170003 2.24077,8.091491 5.61058,15.913487 6.78176,24.227428 0.58559,4.156971 0.60507,8.429812 -0.35413,12.516772 -0.9592,4.08696 -2.93572,7.98696 -5.96055,10.89793 -3.81064,3.66719 -9.01033,5.55002 -14.19769,6.57985 -5.18736,1.02983 -10.50009,1.30578 -15.69541,2.29466 -13.66293,2.60062 -25.92101,9.98939 -39.2347,14.01239 z"
         id="path21940"
         inkscape:path-effect="#path-effect21944"
         inkscape:original-d="m 247.50909,140.02399 c -17.43864,8.71782 -23.0416,-1.71162 -35.03098,-3.26956 -11.98937,-1.55793 -9.80767,-2.02301 -15.88071,-20.5515 -6.07303,-18.528495 -12.29876,-33.005966 -17.74903,-39.234695 -5.45026,-6.228729 13.70201,-12.454459 20.55151,-18.683188 6.8495,-6.22873 17.59434,-25.065611 23.82107,-43.438414 6.22673,-18.372802 28.49286,10.121061 48.57629,16.34779 20.08343,6.22673 19.92974,3.581945 30.82726,8.407435 10.89753,4.825491 16.81587,18.217109 13.54531,29.893102 -3.27056,11.675992 -14.32278,33.31935 0.46708,47.64213 14.78986,14.32278 -15.25694,3.73763 -29.8931,8.87451 -14.63617,5.13687 -21.79606,5.29457 -39.2347,14.01239 z"
         sodipodi:nodetypes="ssssssssssss" />
      <g
         id="g32247"
         transform="matrix(1.2163336,0,0,1.2163336,52.261061,-44.754682)">
        <g
           id="g27702"
           transform="translate(-62.993114,18.507187)"
           style="fill-opacity:1;stroke:url(#linearGradient29753)">
          <ellipse
             style="opacity:1;fill:none;fill-opacity:1;stroke:url(#linearGradient32249);stroke-width:4.2949;stroke-miterlimit:4;stroke-dasharray:none"
             id="path25920"
             cx="109.90082"
             cy="105.43455"
             rx="23.388647"
             ry="26.261955"
             clip-path="url(#clipPath26301)"
             transform="translate(-2.2035648,7.430369)" />
          <ellipse
             style="opacity:1;fill:none;fill-opacity:1;stroke:url(#linearGradient32251);stroke-width:3.971;stroke-miterlimit:4;stroke-dasharray:none"
             id="path26327"
             cx="106.87091"
             cy="67.997765"
             rx="19.694361"
             ry="18.708607" />
          <path
             style="fill:none;fill-opacity:1;stroke:url(#linearGradient32253);stroke-width:2.86508;stroke-linecap:butt;stroke-linejoin:miter;stroke-miterlimit:4;stroke-dasharray:none;stroke-opacity:1"
             d="m 127.49105,67.795718 c 2.14333,0.125148 4.2858,0.250245 5.77901,0.73539 1.49321,0.485145 2.33718,1.329507 -1.98076,8.824946 -4.31795,7.495439 -13.79635,21.641705 -23.84417,21.566114 -10.047806,-0.07559 -20.664626,-14.373777 -25.356784,-21.899127 -4.692157,-7.525349 -3.458666,-8.2759 -1.659575,-8.828091 1.799091,-0.55219 4.163169,-0.90601 6.526598,-1.259733"
             id="path26442"
             inkscape:path-effect="#path-effect26444"
             inkscape:original-d="m 127.49105,67.795718 c 2.14329,0.1259 4.28576,0.250997 6.42738,0.37529 0.84486,0.845229 1.68882,1.689593 2.53201,2.53321 C 126.9723,84.852127 117.49389,98.998392 108.01409,113.14469 97.397478,98.846463 86.780657,84.548277 76.162373,70.24844 c 1.234398,-0.749792 2.467889,-1.500343 3.700619,-2.251741 2.365006,-0.353031 4.729084,-0.706851 7.092377,-1.061482"
             sodipodi:nodetypes="ccccccc" />
          <ellipse
             style="opacity:1;fill:none;fill-opacity:1;stroke:url(#linearGradient32255);stroke-width:2.86508;stroke-miterlimit:4;stroke-dasharray:none"
             id="path27441"
             cx="107.55952"
             cy="104.28715"
             rx="5.5089121"
             ry="5.1083784" />
        </g>
        <g
           id="g30099"
           transform="translate(-62.993114,18.507187)"
           style="opacity:0.529412;fill-opacity:1;stroke:#ffffff">
          <ellipse
             style="opacity:1;fill:none;fill-opacity:1;stroke:#ffffff;stroke-width:4.2949;stroke-miterlimit:4;stroke-dasharray:none"
             id="ellipse30091"
             cx="109.90082"
             cy="105.43455"
             rx="23.388647"
             ry="26.261955"
             clip-path="url(#clipPath26301)"
             transform="translate(-2.2035648,7.430369)" />
          <ellipse
             style="opacity:1;fill:none;fill-opacity:1;stroke:#ffffff;stroke-width:3.971;stroke-miterlimit:4;stroke-dasharray:none"
             id="ellipse30093"
             cx="106.87091"
             cy="67.997765"
             rx="19.694361"
             ry="18.708607" />
          <path
             style="fill:none;fill-opacity:1;stroke:#ffffff;stroke-width:2.86508;stroke-linecap:butt;stroke-linejoin:miter;stroke-miterlimit:4;stroke-dasharray:none;stroke-opacity:1"
             d="m 127.49105,67.795718 c 2.14333,0.125148 4.2858,0.250245 5.77901,0.73539 1.49321,0.485145 2.33718,1.329507 -1.98076,8.824946 -4.31795,7.495439 -13.79635,21.641705 -23.84417,21.566114 -10.047806,-0.07559 -20.664626,-14.373777 -25.356784,-21.899127 -4.692157,-7.525349 -3.458666,-8.2759 -1.659575,-8.828091 1.799091,-0.55219 4.163169,-0.90601 6.526598,-1.259733"
             id="path30095"
             inkscape:path-effect="#path-effect30103"
             inkscape:original-d="m 127.49105,67.795718 c 2.14329,0.1259 4.28576,0.250997 6.42738,0.37529 0.84486,0.845229 1.68882,1.689593 2.53201,2.53321 C 126.9723,84.852127 117.49389,98.998392 108.01409,113.14469 97.397478,98.846463 86.780657,84.548277 76.162373,70.24844 c 1.234398,-0.749792 2.467889,-1.500343 3.700619,-2.251741 2.365006,-0.353031 4.729084,-0.706851 7.092377,-1.061482"
             sodipodi:nodetypes="ccccccc" />
          <ellipse
             style="opacity:1;fill:none;fill-opacity:1;stroke:#ffffff;stroke-width:2.86508;stroke-miterlimit:4;stroke-dasharray:none"
             id="ellipse30097"
             cx="107.55952"
             cy="104.28715"
             rx="5.5089121"
             ry="5.1083784" />
        </g>
      </g>
    </g>
  </g>
</svg>
